# Blender 3.3.1
# www.blender.org
mtllib wall15.mtl
o wall.015
v -0.928186 -0.000000 -0.922003
v -2.928186 -0.000000 -0.922003
v -0.928186 -0.000000 -0.972003
v -2.928186 -0.000000 -0.972003
v -0.928186 1.000000 -0.922003
v -2.928186 1.000000 -0.922003
v -0.928186 1.000000 -0.972003
v -2.928186 1.000000 -0.972003
v -0.928186 -0.000000 -0.922003
v -2.928186 -0.000000 -0.922003
v -0.928186 1.000000 -0.922003
v -2.928186 1.000000 -0.922003
vn -0.0000 -1.0000 -0.0000
vn -0.0000 1.0000 -0.0000
vn 1.0000 -0.0000 -0.0000
vn -1.0000 -0.0000 -0.0000
vn -0.0000 -0.0000 -1.0000
vn -0.0000 -0.0000 1.0000
vt -1.782177 -1.541103
vt -1.896251 2.542955
vt -1.860007 -1.680505
vt 2.999189 -1.783749
vt -1.999189 2.676029
vt 2.999189 2.572409
vt -0.202573 -1.667424
vt -0.228897 2.391910
vt -0.126535 -1.783749
vt 1.437949 -1.783749
vt -0.126535 2.544202
vt 1.437949 2.572409
vt 1.436327 2.572408
vt 1.436327 -1.783749
vt -0.124913 2.572408
vt -0.124913 -1.783749
s 0
usemtl wall
f 2/2/1 4/5/1 3/3/1 1/1/1
f 6/8/2 5/7/2 7/9/2 8/11/2
f 1/1/3 3/3/3 7/9/3 5/7/3
f 4/5/4 2/2/4 6/8/4 8/11/4
f 3/4/5 4/6/5 8/12/5 7/10/5
f 10/14/6 9/13/6 11/15/6 12/16/6
