# Blender 3.3.1
# www.blender.org
mtllib wall17_3.mtl
o wall.017_4
v -0.928185 -0.000000 -0.922003
v -0.878185 -0.000000 -0.922003
v -0.928185 1.000000 -0.922003
v -0.878185 1.000000 -0.922003
v -0.928185 -0.000000 -0.122003
v -0.928185 0.666666 -0.922003
v -0.878185 0.666666 -0.922003
v -0.878185 -0.000000 -0.122003
v -0.928185 1.000000 -0.122003
v -0.878185 1.000000 -0.122003
v -0.878185 -0.000000 -1.722003
v -0.928185 0.666666 -0.122003
v -0.928185 -0.000000 -1.722003
v -0.878185 0.666666 -0.122003
v -0.928185 1.000000 -1.722003
v -0.878185 1.000000 -1.722003
v -0.928185 0.666666 -1.722003
v -0.878185 0.666666 -1.722003
vn -0.0000 -1.0000 -0.0000
vn -0.0000 1.0000 -0.0000
vn 1.0000 -0.0000 -0.0000
vn -1.0000 -0.0000 -0.0000
vn -0.0000 -0.0000 1.0000
vn -0.0000 -0.0000 -1.0000
vt 1.123935 -1.999323
vt -1.947393 0.373546
vt -1.894390 0.368560
vt 1.123934 -0.744131
vt 1.123935 -0.745486
vt -0.674911 0.128181
vt 1.123934 0.509706
vt -0.724920 0.138409
vt 1.842932 -1.999323
vt -1.762705 1.423857
vt 1.123935 -1.163432
vt 1.123934 0.091760
vt -1.716902 1.393890
vt 0.404938 -0.744131
vt -0.674911 1.186688
vt 1.842932 -0.745486
vt -0.724310 1.169151
vt 0.404938 0.509706
vt 1.842932 -0.744132
vt -1.852110 -0.552947
vt 1.842932 -1.163431
vt -1.899645 -0.575280
vt 0.404938 -1.999323
vt 0.404938 0.091760
vt 0.404938 -0.745486
vt -0.844276 -0.722821
vt 1.842932 0.509706
vt -0.885787 -0.696722
vt 0.404938 -1.163432
vt 1.842932 0.091760
s 0
usemtl wall
f 1/2/1 2/3/1 8/13/1 5/10/1
f 3/6/2 9/15/2 10/17/2 4/8/2
f 7/12/3 18/30/3 16/27/3 4/7/3
f 14/24/3 7/12/3 4/7/3 10/18/3
f 8/14/3 2/4/3 7/12/3 14/24/3
f 17/29/4 6/11/4 3/5/4 15/25/4
f 6/11/4 12/21/4 9/16/4 3/5/4
f 13/23/4 1/1/4 6/11/4 17/29/4
f 1/1/4 5/9/4 12/21/4 6/11/4
f 15/26/2 3/6/2 4/8/2 16/28/2
f 13/22/1 11/20/1 2/3/1 1/2/1
f 2/4/3 11/19/3 18/30/3 7/12/3
f 12/21/5 5/10/5 8/14/5 14/24/5
f 18/30/6 11/20/6 13/23/6 17/29/6
