# Blender 3.3.1
# www.blender.org
mtllib wall8.mtl
o wall.008
v -0.928186 -0.000000 -4.922003
v 4.071814 -0.000000 -4.922003
v -2.928186 -0.000000 -4.922003
v -2.878186 -0.000000 -4.872003
v -0.928186 -0.000000 -4.872003
v 4.021814 -0.000000 -4.872003
v -2.878186 1.000000 -4.872003
v -0.928186 1.000000 -4.872003
v 4.021814 1.000000 -4.872003
v -2.928186 1.000000 -4.922003
v -0.928186 1.000000 -4.922003
v 4.071814 1.000000 -4.922003
vn -0.0000 -1.0000 -0.0000
vn -0.0000 1.0000 -0.0000
vn -0.0000 -0.0000 1.0000
vn -0.0000 -0.0000 -1.0000
vn 0.7071 -0.0000 0.7071
vn -0.7071 -0.0000 0.7071
vt -0.025479 -0.304266
vt 2.999365 0.407569
vt 2.999365 -1.629644
vt -1.999365 -0.515468
vt 1.979489 -0.430722
vt 2.999365 2.444784
vt -1.999365 -0.302997
vt 1.910052 -0.472909
vt -0.024331 -0.361268
vt -0.013082 -0.302997
vt 1.973202 -0.302997
vt -1.922174 -0.555774
vt -1.999365 0.715610
vt 1.902298 -1.378138
vt 0.004450 -1.572643
vt -0.013082 0.715610
vt 1.973202 0.715610
vt -1.929928 -1.461001
vt 1.979489 -1.418444
vt 1.980758 2.444784
vt 0.005598 -1.629644
vt 1.980758 0.407569
vt 1.980759 -1.629644
vt -1.999364 -1.503188
s 0
usemtl wall
f 4/8/1 3/5/1 1/1/1 5/9/1
f 5/9/1 1/1/1 2/4/1 6/12/1
f 7/14/2 8/15/2 11/21/2 10/19/2
f 8/15/2 9/18/2 12/24/2 11/21/2
f 4/7/3 5/10/3 8/16/3 7/13/3
f 2/3/4 1/2/4 11/22/4 12/23/4
f 5/10/3 6/11/3 9/17/3 8/16/3
f 6/12/5 2/4/5 12/24/5 9/18/5
f 3/5/6 4/8/6 7/14/6 10/19/6
f 1/2/4 3/6/4 10/20/4 11/22/4
