# Blender 3.3.1
# www.blender.org
mtllib wall18.mtl
o wall.018
v 1.071814 -0.000000 1.077997
v 1.071814 -0.000000 -0.922003
v 1.071814 -0.000000 -2.922003
v 1.021814 -0.000000 1.077997
v 1.021814 -0.000000 -0.922003
v 1.021814 -0.000000 -2.922003
v 1.071814 1.000000 -0.922003
v 1.071814 1.000000 1.077997
v 1.071814 1.000000 -2.922003
v 1.021814 1.000000 -0.922003
v 1.021814 1.000000 1.077997
v 1.021814 1.000000 -2.922003
vn -0.0000 -1.0000 -0.0000
vn -0.0000 1.0000 -0.0000
vn -0.0000 -0.0000 1.0000
vn -1.0000 -0.0000 -0.0000
vn 1.0000 -0.0000 -0.0000
vn -0.0000 -0.0000 -1.0000
vt -1.895978 -1.737524
vt -0.116850 -1.738221
vt -1.999413 0.317893
vt -0.116849 0.434701
vt -1.599329 2.593155
vt -0.116850 2.607625
vt -1.861896 -1.682664
vt 2.999413 -1.738221
vt -1.953485 0.313574
vt 1.441868 -1.738221
vt -1.568998 2.534720
vt -0.115676 -1.738221
vt -0.896796 0.105282
vt -0.895622 0.434701
vt -1.263687 -1.738221
vt -0.895622 -1.738221
vt -0.896796 2.398299
vt -0.895622 2.607625
vt -0.940128 0.114145
vt 1.441868 -0.651759
vt -1.288610 -1.694977
vt 2.999413 -0.651758
vt -0.938807 2.347014
vt -0.115676 -0.651760
s 0
usemtl wall
f 2/3/1 5/9/1 6/11/1 3/5/1
f 1/1/1 4/7/1 5/9/1 2/3/1
f 7/13/2 9/17/2 12/23/2 10/19/2
f 8/15/2 7/13/2 10/19/2 11/21/2
f 4/7/3 1/1/3 8/15/3 11/21/3
f 5/10/4 4/8/4 11/22/4 10/20/4
f 1/2/5 2/4/5 7/14/5 8/16/5
f 3/5/6 6/11/6 12/23/6 9/17/6
f 6/12/4 5/10/4 10/20/4 12/24/4
f 2/4/5 3/6/5 9/18/5 7/14/5
