# Blender 3.3.1
# www.blender.org
mtllib wall2.mtl
o wall.002
v -0.928186 -0.000000 3.077997
v -0.928186 -0.000000 1.077997
v -0.928186 -0.000000 5.077997
v -0.878186 -0.000000 3.077997
v -0.878186 -0.000000 1.027997
v -0.878186 -0.000000 5.027997
v -0.878186 1.000000 3.077997
v -0.878186 1.000000 1.027997
v -0.878186 1.000000 5.027997
v -0.928186 1.000000 3.077997
v -0.928186 1.000000 1.077997
v -0.928186 1.000000 5.077997
vn -0.0000 -1.0000 -0.0000
vn -0.0000 1.0000 -0.0000
vn 0.7071 -0.0000 0.7071
vn -1.0000 -0.0000 -0.0000
vn 1.0000 -0.0000 -0.0000
vn -0.7071 -0.0000 -0.7071
vt -0.166960 -0.663063
vt 1.815893 -0.194452
vt 1.815893 1.610510
vt 1.744613 -0.803866
vt -1.786277 -1.393935
vt 1.815892 -1.999415
vt -0.174249 -0.611681
vt -0.909573 1.149328
vt -0.909573 2.999415
vt 1.814721 -0.763257
vt -1.812054 -1.351005
vt -0.909573 -0.610510
vt -0.154865 -1.999415
vt -1.812054 1.149328
vt -1.812054 2.999415
vt 1.814721 -1.771979
vt -1.779238 -1.585042
vt -1.812054 -0.610510
vt -0.153184 -1.950476
vt 2.718374 -0.194452
vt 2.718374 1.610510
vt 1.736620 -1.732957
vt -1.770917 -1.544294
vt 2.718374 -1.999415
s 0
usemtl wall
f 4/7/1 1/1/1 2/4/1 5/10/1
f 6/11/1 3/5/1 1/1/1 4/7/1
f 7/13/2 8/16/2 11/22/2 10/19/2
f 9/17/2 7/13/2 10/19/2 12/23/2
f 3/5/3 6/11/3 9/17/3 12/23/3
f 2/3/4 1/2/4 10/20/4 11/21/4
f 4/8/5 5/9/5 8/15/5 7/14/5
f 5/10/6 2/4/6 11/22/6 8/16/6
f 1/2/4 3/6/4 12/24/4 10/20/4
f 6/12/5 4/8/5 7/14/5 9/18/5
