# Blender 3.3.1
# www.blender.org
mtllib wall17_2.mtl
o wall.017_2
v -0.928185 1.000000 -0.122003
v -0.928185 1.000000 0.277997
v -0.878185 1.000000 -0.122003
v -0.878185 1.000000 0.277997
v -0.928185 0.666666 -0.122003
v -0.928185 0.666666 0.277997
v -0.878185 0.666666 0.277997
v -0.878185 0.666666 -0.122003
vn -1.0000 -0.0000 -0.0000
vn 1.0000 -0.0000 -0.0000
vn -0.0000 1.0000 -0.0000
vn -0.0000 -1.0000 -0.0000
vn -0.0000 -0.0000 1.0000
vn -0.0000 -0.0000 -1.0000
vt 1.842932 -0.745486
vt -0.674911 1.186688
vt 2.202431 -0.745486
vt -0.674911 1.715942
vt 0.404938 0.509706
vt -0.724310 1.169151
vt 0.045439 0.509706
vt -0.724005 1.684522
vt 1.842932 -1.163431
vt 2.202431 -1.163431
vt 0.045439 0.091760
vt 0.404938 0.091760
s 0
usemtl wall
f 5/9/1 6/10/1 2/3/1 1/1/1
f 7/11/2 8/12/2 3/5/2 4/7/2
f 1/2/3 2/4/3 4/8/3 3/6/3
f 8/12/4 7/11/4 6/10/4 5/9/4
f 2/4/5 6/10/5 7/11/5 4/8/5
f 1/2/6 3/6/6 8/12/6 5/9/6
