# Blender 3.3.1
# www.blender.org
mtllib wall4.mtl
o wall.004
v 1.071814 -0.000000 3.077997
v 3.121812 -0.000000 3.077997
v 3.071812 -0.000000 3.027997
v 1.021814 -0.000000 3.027997
v 3.071812 1.000000 3.027997
v 1.021814 1.000000 3.027997
v 3.121812 1.000000 3.077997
v 1.071814 1.000000 3.077997
vn -0.0000 -1.0000 -0.0000
vn -0.0000 1.0000 -0.0000
vn -0.7071 -0.0000 0.7071
vn -0.0000 -0.0000 1.0000
vn 0.7071 -0.0000 -0.7071
vn -0.0000 -0.0000 -1.0000
vt -0.730909 -1.851623
vt -1.237803 1.636811
vt 1.555642 1.636811
vt 1.798366 -0.442825
vt 1.856970 -0.515188
vt 1.856970 1.392919
vt -0.846476 -1.999469
vt -1.119349 1.635750
vt 1.738515 -0.058944
vt -1.237803 0.183885
vt 1.555642 2.999469
vt 1.731651 -0.139444
vt -1.058676 0.095380
vt -1.237803 2.999469
s 0
usemtl wall
f 3/5/1 2/4/1 1/1/1 4/7/1
f 5/9/2 6/10/2 8/13/2 7/12/2
f 4/7/3 1/1/3 8/13/3 6/10/3
f 1/2/4 2/3/4 7/11/4 8/14/4
f 2/4/5 3/5/5 5/9/5 7/12/5
f 3/6/6 4/8/6 6/10/6 5/9/6
