# Blender 3.3.1
# www.blender.org
mtllib wall6.mtl
o wall.006
v 3.121812 -0.000000 1.077997
v 4.071814 -0.000000 1.077997
v 3.071812 -0.000000 1.027997
v 4.021814 -0.000000 1.027997
v 4.021814 1.000000 1.027997
v 3.071812 1.000000 1.027997
v 4.071814 1.000000 1.077997
v 3.121812 1.000000 1.077997
vn -0.0000 -1.0000 -0.0000
vn -0.0000 1.0000 -0.0000
vn 0.7071 -0.0000 -0.7071
vn -0.0000 -0.0000 1.0000
vn -0.7071 -0.0000 0.7071
vn -0.0000 -0.0000 -1.0000
vt 2.999243 0.502992
vt -1.802809 0.699545
vt 0.716207 1.804665
vt 2.999243 2.670445
vt -1.730453 0.542691
vt 2.885173 -1.780045
vt 0.487433 1.559958
vt 0.717720 -1.780044
vt 0.450090 -1.484731
vt 0.717721 0.501479
vt -1.908807 -0.271427
vt 2.885173 0.501479
vt 0.716207 -1.780045
vt 0.717720 2.670445
vt 0.717720 0.502993
vt -1.999243 -0.425694
s 0
usemtl wall
f 4/7/1 2/3/1 1/2/1 3/5/1
f 5/9/2 6/11/2 8/16/2 7/13/2
f 2/3/3 4/7/3 5/9/3 7/13/3
f 1/1/4 2/4/4 7/14/4 8/15/4
f 3/5/5 1/2/5 8/16/5 6/11/5
f 4/8/6 3/6/6 6/12/6 5/10/6
