# Blender 3.3.1
# www.blender.org
mtllib wall17.mtl
o wall.017
v -0.928185 -0.000000 1.077997
v -0.878185 -0.000000 1.077997
v -0.928185 1.000000 1.077997
v -0.878185 1.000000 1.077997
v -0.928185 -0.000000 0.277997
v -0.878185 -0.000000 0.277997
v -0.928185 1.000000 0.277997
v -0.928185 0.666666 1.077997
v -0.878185 0.666666 1.077997
v -0.878185 1.000000 0.277997
v -0.928185 0.666666 0.277997
v -0.878185 0.666666 0.277997
vn -0.0000 -0.0000 1.0000
vn 1.0000 -0.0000 -0.0000
vn -1.0000 -0.0000 -0.0000
vn -0.0000 1.0000 -0.0000
vn -0.0000 -1.0000 -0.0000
vn -0.0000 -0.0000 -1.0000
vt 2.921428 -1.999323
vt -1.485674 2.999323
vt -0.673558 -0.744131
vt -1.450670 2.931886
vt 2.921428 -0.745485
vt -0.674911 2.774449
vt -0.673557 0.509706
vt -0.723395 2.715263
vt 2.202431 -1.999323
vt -1.670362 1.949012
vt -1.628158 1.906555
vt 0.045439 -0.744131
vt 2.202431 -0.745486
vt -0.674911 1.715942
vt 2.921428 -1.163431
vt -0.945166 2.849407
vt -0.673558 0.091760
vt -0.965820 2.787471
vt 0.045439 0.509706
vt -0.724005 1.684522
vt 2.202431 -1.163431
vt 0.045439 0.091760
s 0
usemtl wall
f 8/16/1 9/18/1 4/8/1 3/6/1
f 9/17/2 12/22/2 10/19/2 4/7/2
f 11/21/3 8/15/3 3/5/3 7/13/3
f 5/9/3 1/1/3 8/15/3 11/21/3
f 7/14/4 3/6/4 4/8/4 10/20/4
f 5/10/5 6/11/5 2/4/5 1/2/5
f 2/3/2 6/12/2 12/22/2 9/17/2
f 1/2/1 2/4/1 9/18/1 8/16/1
f 11/21/6 12/22/6 6/12/6 5/10/6
