# Blender 3.3.1
# www.blender.org
mtllib wall14_5.mtl
o wall.014_5
v -0.928186 -0.000000 -2.922003
v -0.928186 -0.000000 -2.872003
v -0.928186 1.000000 -2.922003
v -0.928186 1.000000 -2.872003
v -0.928186 0.666666 -2.872003
v -2.353397 -0.000000 -2.922003
v -0.928186 0.666666 -2.922003
v -2.353397 -0.000000 -2.872003
v -2.353397 1.000000 -2.922003
v -2.353397 1.000000 -2.872003
v -2.353397 0.666666 -2.872003
v -2.353397 0.666666 -2.922003
v -0.978184 -0.000000 -2.922003
v -0.978184 -0.000000 -2.872003
v -0.978184 1.000000 -2.922003
v -0.978184 1.000000 -2.872003
v -0.639587 -0.000000 -2.922003
v -0.639587 -0.000000 -2.872003
v -0.978184 0.666666 -2.922003
v -0.639587 1.000000 -2.922003
v -0.978184 0.666666 -2.872003
v -0.639587 1.000000 -2.872003
v -0.639587 0.666666 -2.872003
v -0.639587 0.666666 -2.922003
vn 1.0000 -0.0000 -0.0000
vn -0.0000 -0.0000 1.0000
vn -0.0000 -0.0000 -1.0000
vn -0.0000 1.0000 -0.0000
vn -0.0000 -1.0000 -0.0000
vn -1.0000 -0.0000 -0.0000
vt 2.999190 -1.783748
vt -1.896250 2.542953
vt 1.436329 2.572409
vt -1.999189 2.676028
vt 1.437950 -1.783748
vt -0.228896 2.391909
vt -0.124912 2.572409
vt -0.126533 2.544203
vt 0.395502 2.572409
vt -0.750752 2.588144
vt -1.827806 0.092520
vt 2.999190 0.829946
vt 1.958363 -1.783748
vt -0.784681 2.442257
vt 1.436329 -0.041286
vt -1.915680 0.062108
vt 1.437950 0.829946
vt -0.213102 -0.043690
vt -0.126533 -0.052568
vt -0.124912 -0.041285
vt 0.395502 -0.041285
vt 1.958363 0.829946
vt 2.999190 2.572409
vt -1.782176 -1.541102
vt 1.436329 -1.783748
vt -1.860006 -1.680505
vt -0.202572 -1.667422
vt 1.437949 2.572409
vt -0.126533 -1.783748
vt -0.124911 -1.783747
vt -1.804991 -0.724291
vt 2.999190 1.701178
vt 1.436329 -0.912517
vt -1.887843 -0.809199
vt 1.958363 2.572409
vt -0.729107 -1.625315
vt 1.437949 1.701178
vt -0.207837 -0.855556
vt 0.395502 -1.783748
vt -0.704358 -1.749334
vt -0.126533 -0.918158
vt -0.124911 -0.912516
vt 0.395502 -0.912516
vt 1.958363 1.701178
s 0
usemtl wall
f 5/10/1 7/14/1 3/6/1 4/8/1
f 11/21/2 5/9/2 4/7/2 10/20/2
f 7/13/3 12/22/3 9/17/3 3/5/3
f 8/15/2 2/3/2 5/9/2 11/21/2
f 3/6/4 9/18/4 10/19/4 4/8/4
f 1/1/3 6/12/3 12/22/3 7/13/3
f 1/2/5 2/4/5 8/16/5 6/11/5
f 12/22/6 6/12/6 8/16/6 11/21/6
f 2/4/1 1/2/1 7/14/1 5/10/1
f 17/31/5 18/34/5 14/26/5 13/24/5
f 20/38/4 15/27/4 16/29/4 22/41/4
f 19/36/6 21/40/6 16/29/6 15/27/6
f 24/44/3 19/35/3 15/28/3 20/37/3
f 21/39/2 23/43/2 22/42/2 16/30/2
f 14/25/2 18/33/2 23/43/2 21/39/2
f 17/32/3 13/23/3 19/35/3 24/44/3
f 13/24/6 14/26/6 21/40/6 19/36/6
f 24/44/1 23/43/1 18/34/1 17/32/1
f 11/21/6 10/20/6 9/18/6 12/22/6
f 23/43/1 24/44/1 20/38/1 22/42/1
