# Blender 3.3.1
# www.blender.org
mtllib wall7.mtl
o wall.007
v 4.071814 -0.000000 1.077997
v 4.071814 -0.000000 -0.922003
v 4.071814 -0.000000 -2.922003
v 4.021814 -0.000000 1.027997
v 4.021814 -0.000000 -0.922003
v 4.021814 -0.000000 -2.872003
v 4.021814 1.000000 -0.922003
v 4.021814 1.000000 1.027997
v 4.021814 1.000000 -2.872003
v 4.071814 1.000000 -0.922003
v 4.071814 1.000000 1.077997
v 4.071814 1.000000 -2.922003
v 4.071814 -0.000000 -2.922003
v 4.071814 -0.000000 -4.922003
v 4.021814 -0.000000 -4.872003
v 4.021814 -0.000000 -2.872003
v 4.021814 1.000000 -4.872003
v 4.021814 1.000000 -2.872003
v 4.071814 1.000000 -4.922003
v 4.071814 1.000000 -2.922003
vn -0.0000 -1.0000 -0.0000
vn -0.0000 1.0000 -0.0000
vn -0.7071 -0.0000 -0.7071
vn -0.7071 -0.0000 0.7071
vn 1.0000 -0.0000 -0.0000
vn -1.0000 -0.0000 -0.0000
vn 0.7071 -0.0000 0.7071
vt -1.999366 -0.515468
vt 2.999366 -1.629644
vt -0.025480 -0.304266
vt 2.999366 0.407569
vt 1.979489 -0.430723
vt 2.999366 2.444782
vt -1.922174 -0.555774
vt 1.973201 -0.302997
vt -0.024332 -0.361267
vt -0.013083 -0.302997
vt 1.910053 -0.472910
vt -1.999366 -0.302997
vt 0.004450 -1.572642
vt -0.013083 0.715610
vt -1.929928 -1.461000
vt 1.973201 0.715610
vt 1.902298 -1.378137
vt -1.999365 0.715610
vt 0.005598 -1.629644
vt 1.980758 0.407569
vt -1.999364 -1.503188
vt 1.980759 -1.629643
vt 1.979489 -1.418443
vt 1.980758 2.444782
vt -1.648476 -0.488054
vt -0.387813 0.333776
vt -0.387813 2.999360
vt 1.247155 0.332496
vt 1.101197 0.213439
vt 1.248435 0.666224
vt -1.617907 -0.572642
vt 1.248435 -1.999360
vt 1.076940 -1.858915
vt 2.581227 0.666224
vt -1.681917 -0.909654
vt 2.581228 -1.999360
vt -1.720605 2.999360
vt 1.247155 -1.999360
vt -1.720605 -0.991258
vt -1.720605 0.333776
s 0
usemtl wall
f 5/9/1 2/3/1 1/1/1 4/7/1
f 6/11/1 3/5/1 2/3/1 5/9/1
f 7/13/2 8/15/2 11/21/2 10/19/2
f 9/17/2 7/13/2 10/19/2 12/23/2
f 3/5/3 6/11/3 9/17/3 12/23/3
f 4/7/4 1/1/4 11/21/4 8/15/4
f 1/2/5 2/4/5 10/20/5 11/22/5
f 5/10/6 4/8/6 8/16/6 7/14/6
f 2/4/5 3/6/5 12/24/5 10/20/5
f 6/12/6 5/10/6 7/14/6 9/18/6
f 15/29/1 14/28/1 13/25/1 16/31/1
f 17/33/2 18/35/2 20/39/2 19/38/2
f 16/31/7 13/25/7 20/39/7 18/35/7
f 13/26/5 14/27/5 19/37/5 20/40/5
f 14/28/3 15/29/3 17/33/3 19/38/3
f 15/30/6 16/32/6 18/36/6 17/34/6
