# Blender 3.3.1
# www.blender.org
mtllib wall14_3.mtl
o wall.014_3
v -2.928186 -0.000000 -2.922003
v -2.928186 -0.000000 -2.872003
v -2.928186 1.000000 -2.922003
v -2.928186 1.000000 -2.872003
v -2.753397 -0.000000 -2.922003
v -2.753397 -0.000000 -2.872003
v -2.928186 0.666666 -2.922003
v -2.753397 1.000000 -2.922003
v -2.928186 0.666666 -2.872003
v -2.753397 1.000000 -2.872003
v -2.753397 0.666666 -2.872003
v -2.753397 0.666666 -2.922003
vn -0.0000 -1.0000 -0.0000
vn -0.0000 1.0000 -0.0000
vn -1.0000 -0.0000 -0.0000
vn -0.0000 -0.0000 -1.0000
vn 1.0000 -0.0000 -0.0000
vn -0.0000 -0.0000 1.0000
vt 2.999190 2.572409
vt -1.782176 -1.541102
vt 1.436329 -1.783748
vt -1.860006 -1.680505
vt -0.202572 -1.667422
vt 1.437949 2.572409
vt -0.126533 -1.783748
vt -0.124911 -1.783747
vt -1.804991 -0.724291
vt 2.999190 1.701178
vt -1.887843 -0.809199
vt 1.436329 -0.912517
vt 1.958363 2.572409
vt -0.729107 -1.625315
vt 1.437949 1.701178
vt -0.207837 -0.855556
vt 0.395502 -1.783748
vt -0.704358 -1.749334
vt -0.126533 -0.918158
vt -0.124911 -0.912516
vt 0.395502 -0.912516
vt 1.958363 1.701178
s 0
usemtl wall
f 5/9/1 6/11/1 2/4/1 1/2/1
f 8/16/2 3/5/2 4/7/2 10/19/2
f 7/14/3 9/18/3 4/7/3 3/5/3
f 12/22/4 7/13/4 3/6/4 8/15/4
f 12/22/5 11/21/5 6/11/5 5/10/5
f 9/17/6 11/21/6 10/20/6 4/8/6
f 2/3/6 6/12/6 11/21/6 9/17/6
f 5/10/4 1/1/4 7/13/4 12/22/4
f 1/2/3 2/4/3 9/18/3 7/14/3
f 11/21/5 12/22/5 8/16/5 10/20/5
