# Blender 3.3.1
# www.blender.org
mtllib wall11_3.mtl
o wall.011_3
v 2.071814 -0.000000 -1.872651
v 2.121814 -0.000000 -1.872651
v 2.071814 1.000000 -1.872651
v 2.121814 1.000000 -1.872651
v 2.071814 -0.000000 -1.979638
v 2.121814 -0.000000 -1.979638
v 2.071814 1.000000 -1.979638
v 2.121814 1.000000 -1.979638
v 2.121814 0.666666 -1.872651
v 2.071814 0.666666 -1.872651
v 2.121814 0.666666 -1.979638
v 2.071814 0.666666 -1.979638
vn -0.0000 -0.0000 1.0000
vn -1.0000 -0.0000 -0.0000
vn -0.0000 1.0000 -0.0000
vn -0.0000 -1.0000 -0.0000
vn -0.0000 -0.0000 -1.0000
vn 1.0000 -0.0000 -0.0000
vt -1.782177 -1.541103
vt 1.436328 2.572408
vt 2.999189 -1.783749
vt -1.860007 -1.680506
vt -0.124913 2.572408
vt -0.202573 -1.667424
vt -0.126535 -1.783749
vt 1.437949 -1.783749
vt -1.827807 0.092520
vt 1.436328 0.829945
vt -1.915680 0.062108
vt 2.999189 -0.041287
vt -0.124913 0.829945
vt -0.213103 -0.043690
vt -0.126535 -0.052568
vt 1.437949 -0.041287
vt -0.704359 -1.749335
vt 1.958363 -1.783749
vt -0.729107 -1.625317
vt 0.395500 2.572408
vt 1.958362 -0.041287
vt 0.395500 0.829945
s 0
usemtl wall
f 10/19/1 9/17/1 4/7/1 3/6/1
f 12/22/2 10/20/2 3/5/2 7/13/2
f 7/14/3 3/6/3 4/7/3 8/15/3
f 5/9/4 6/11/4 2/4/4 1/1/4
f 12/22/5 11/21/5 6/11/5 5/10/5
f 6/12/6 11/21/6 9/18/6 2/3/6
f 1/1/1 2/4/1 9/17/1 10/19/1
f 1/2/2 10/20/2 12/22/2 5/10/2
f 9/18/6 11/21/6 8/16/6 4/8/6
f 11/21/5 12/22/5 7/14/5 8/16/5
