# Blender v2.92.0 OBJ File: 'envireonment.blend'
# www.blender.org
mtllib out_pagar.mtl
o Cube.004_Cube.006
v 5.091547 0.875036 11.222502
v 5.185692 0.875036 11.222502
v 5.185692 0.875036 11.309100
v 5.091547 0.875036 11.309100
v 5.091547 0.379705 11.222502
v 5.185692 0.379705 11.222502
v 5.185692 0.379705 11.309100
v 5.091547 0.379705 11.309100
v 5.083163 -0.032407 11.316813
v 5.083163 0.403858 11.316813
v 5.083163 -0.032407 -4.906060
v 5.083163 0.403858 -4.906060
v 5.194076 -0.032407 11.316813
v 5.194076 0.403858 11.316813
v 5.194076 -0.032407 -4.906060
v 5.194076 0.403858 -4.906060
v 5.092538 -0.032407 -4.795152
v 5.092538 0.403858 -4.795152
v 4.044024 -0.032407 -4.795151
v 4.044024 0.403858 -4.795151
v 5.092538 -0.032407 -4.906064
v 5.092538 0.403858 -4.906064
v 4.044024 -0.032407 -4.906064
v 4.044024 0.403858 -4.906064
v 5.092538 0.952409 -4.795152
v 4.044024 0.952409 -4.795151
v 5.092538 0.952409 -4.906064
v 4.044024 0.952409 -4.906064
v 4.044024 0.875036 -4.795151
v 4.044024 0.875036 -4.906064
v 5.092538 0.875036 -4.906064
v 5.092538 0.875036 -4.795152
v 5.083163 0.952409 11.316813
v 5.083163 0.952409 -4.906060
v 5.194076 0.952409 11.316813
v 5.194076 0.952409 -4.906060
v 5.083163 0.875036 -4.906060
v 5.194076 0.875036 -4.906060
v 5.194076 0.875036 11.316813
v 5.083163 0.875036 11.316813
v 4.098162 0.909750 -4.891648
v 4.192307 0.909750 -4.891648
v 4.192307 0.909750 -4.805051
v 4.098162 0.909750 -4.805051
v 4.098162 0.414419 -4.891648
v 4.192307 0.414419 -4.891648
v 4.192307 0.414419 -4.805051
v 4.098162 0.414419 -4.805051
v 5.089330 -0.032407 11.316594
v 5.089330 0.403858 11.316594
v 1.109634 -0.032407 11.316595
v 1.109634 0.403858 11.316595
v 5.089330 -0.032407 11.205681
v 5.089330 0.403858 11.205681
v 1.109634 -0.032407 11.205681
v 1.109634 0.403858 11.205681
v 5.089330 0.952409 11.316594
v 1.109634 0.952409 11.316595
v 5.089330 0.952409 11.205681
v 1.109634 0.952409 11.205681
v 1.109634 0.875036 11.316595
v 1.109634 0.875036 11.205681
v 5.089330 0.875036 11.205681
v 5.089330 0.875036 11.316594
v 1.122764 0.875036 11.218392
v 1.216910 0.875036 11.218392
v 1.216910 0.875036 11.304991
v 1.122764 0.875036 11.304991
v 1.122764 0.379705 11.218392
v 1.216910 0.379705 11.218392
v 1.216910 0.379705 11.304991
v 1.122764 0.379705 11.304991
v -1.087107 0.875036 11.222502
v -0.992961 0.875036 11.222502
v -0.992961 0.875036 11.309100
v -1.087107 0.875036 11.309100
v -1.087107 0.379705 11.222502
v -0.992961 0.379705 11.222502
v -0.992961 0.379705 11.309100
v -1.087107 0.379705 11.309100
v -4.071716 -0.032407 11.316813
v -4.071716 0.403858 11.316813
v -4.071716 -0.032407 -4.906060
v -4.071716 0.403858 -4.906060
v -3.960803 -0.032407 11.316813
v -3.960803 0.403858 11.316813
v -3.960803 -0.032407 -4.906060
v -3.960803 0.403858 -4.906060
v -4.071716 0.952409 11.316813
v -4.071716 0.952409 -4.906060
v -3.960803 0.952409 11.316813
v -3.960803 0.952409 -4.906060
v -4.071716 0.875036 -4.906060
v -3.960803 0.875036 -4.906060
v -3.960803 0.875036 11.316813
v -4.071716 0.875036 11.316813
v -4.063333 0.875036 11.222502
v -3.969187 0.875036 11.222502
v -3.969187 0.875036 11.309100
v -4.063333 0.875036 11.309100
v -4.063333 0.379705 11.222502
v -3.969187 0.379705 11.222502
v -3.969187 0.379705 11.309100
v -4.063333 0.379705 11.309100
v -4.060579 0.875036 -4.891648
v -3.966434 0.875036 -4.891648
v -3.966434 0.875036 -4.805051
v -4.060579 0.875036 -4.805051
v -4.060579 0.379705 -4.891648
v -3.966434 0.379705 -4.891648
v -3.966434 0.379705 -4.805051
v -4.060579 0.379705 -4.805051
v -2.920882 -0.032407 -4.795152
v -2.920882 0.403858 -4.795152
v -3.969398 -0.032407 -4.795151
v -3.969398 0.403858 -4.795151
v -2.920882 -0.032407 -4.906064
v -2.920882 0.403858 -4.906064
v -3.969398 -0.032407 -4.906064
v -3.969398 0.403858 -4.906064
v -2.920882 0.952409 -4.795152
v -3.969398 0.952409 -4.795151
v -2.920882 0.952409 -4.906064
v -3.969398 0.952409 -4.906064
v -3.969398 0.875036 -4.795151
v -3.969398 0.875036 -4.906064
v -2.920882 0.875036 -4.906064
v -2.920882 0.875036 -4.795152
v -0.986511 -0.032407 11.316594
v -0.986511 0.403858 11.316594
v -4.019468 -0.032407 11.316595
v -4.019468 0.403858 11.316595
v -0.986511 -0.032407 11.205681
v -0.986511 0.403858 11.205681
v -4.019468 -0.032407 11.205681
v -4.019468 0.403858 11.205681
v -0.986511 0.952409 11.316594
v -4.019468 0.952409 11.316595
v -0.986511 0.952409 11.205681
v -4.019468 0.952409 11.205681
v -4.019468 0.875036 11.316595
v -4.019468 0.875036 11.205681
v -0.986511 0.875036 11.205681
v -0.986511 0.875036 11.316594
vt 0.903595 0.602983
vt 0.096405 0.602983
vt 0.096405 0.397017
vt 0.903595 0.397017
vt 0.903595 0.602983
vt 0.903595 0.397017
vt 0.096405 0.397017
vt 0.096405 0.602983
vt 0.397017 1.000000
vt 0.397017 0.000000
vt 0.602983 0.000000
vt 0.602983 1.000000
vt 0.096405 1.000000
vt 0.096405 0.000000
vt 0.903595 0.000000
vt 0.903595 1.000000
vt 0.602983 1.000000
vt 0.602983 0.000000
vt 0.397017 0.000000
vt 0.397017 1.000000
vt 0.903595 1.000000
vt 0.903595 0.000000
vt 0.096405 0.000000
vt 0.096405 1.000000
vt 0.485902 0.484617
vt 0.485902 0.515383
vt 0.514098 0.515383
vt 0.514098 0.484617
vt 0.000000 0.484617
vt 0.000000 0.515383
vt 1.000000 0.515383
vt 1.000000 0.484617
vt 0.514098 0.484617
vt 0.514098 0.515383
vt 0.485902 0.515383
vt 0.485902 0.484617
vt 1.000000 0.484617
vt 1.000000 0.515383
vt 0.000000 0.515383
vt 0.000000 0.484617
vt 0.485902 1.000000
vt 0.514098 1.000000
vt 0.514098 0.000000
vt 0.485902 0.000000
vt 0.514098 1.000000
vt 0.485902 1.000000
vt 0.485902 0.000000
vt 0.514098 0.000000
vt 0.375000 0.250000
vt 0.625000 0.250000
vt 0.625000 0.500000
vt 0.375000 0.500000
vt 0.375000 0.000000
vt 0.625000 0.000000
vt 0.375000 0.750000
vt 0.625000 0.750000
vt 0.625000 1.000000
vt 0.375000 1.000000
vt 0.125000 0.500000
vt 0.125000 0.750000
vt 0.875000 0.500000
vt 0.875000 0.750000
vt 0.625000 0.500000
vt 0.875000 0.500000
vt 0.875000 0.750000
vt 0.625000 0.750000
vt 0.625000 0.500000
vt 0.625000 0.750000
vt 0.875000 0.750000
vt 0.875000 0.500000
vt 0.514098 1.000000
vt 0.485902 1.000000
vt 0.485902 0.000000
vt 0.514098 0.000000
vt 0.514098 1.000000
vt 0.514098 0.000000
vt 0.485902 0.000000
vt 0.485902 1.000000
vt 1.000000 0.502728
vt 1.000000 0.497272
vt 0.000000 0.497272
vt 0.000000 0.502728
vt 0.514098 0.502728
vt 0.514098 0.497272
vt 0.485902 0.497272
vt 0.485902 0.502728
vt 0.000000 0.502728
vt 0.000000 0.497272
vt 1.000000 0.497272
vt 1.000000 0.502728
vt 0.485902 0.502728
vt 0.485902 0.497272
vt 0.514098 0.497272
vt 0.514098 0.502728
vt 0.903595 0.602983
vt 0.096405 0.602983
vt 0.096405 0.397017
vt 0.903595 0.397017
vt 0.903595 0.602983
vt 0.903595 0.397017
vt 0.096405 0.397017
vt 0.096405 0.602983
vt 0.397017 1.000000
vt 0.397017 0.000000
vt 0.602983 0.000000
vt 0.602983 1.000000
vt 0.096405 1.000000
vt 0.096405 0.000000
vt 0.903595 0.000000
vt 0.903595 1.000000
vt 0.602983 1.000000
vt 0.602983 0.000000
vt 0.397017 0.000000
vt 0.397017 1.000000
vt 0.903595 1.000000
vt 0.903595 0.000000
vt 0.096405 0.000000
vt 0.096405 1.000000
vt 0.449767 0.445189
vt 0.449767 0.554811
vt 0.550233 0.554811
vt 0.550233 0.445189
vt 0.000000 0.445189
vt 0.000000 0.554811
vt 1.000000 0.554811
vt 1.000000 0.445189
vt 0.550233 0.445189
vt 0.550233 0.554811
vt 0.449767 0.554811
vt 0.449767 0.445189
vt 1.000000 0.445189
vt 1.000000 0.554811
vt 0.000000 0.554811
vt 0.000000 0.445189
vt 0.449767 1.000000
vt 0.550233 1.000000
vt 0.550233 0.000000
vt 0.449767 0.000000
vt 0.550233 1.000000
vt 0.449767 1.000000
vt 0.449767 0.000000
vt 0.550233 0.000000
vt 0.550233 1.000000
vt 0.449767 1.000000
vt 0.449767 0.000000
vt 0.550233 0.000000
vt 0.550233 1.000000
vt 0.550233 0.000000
vt 0.449767 0.000000
vt 0.449767 1.000000
vt 1.000000 0.509721
vt 1.000000 0.490279
vt 0.000000 0.490279
vt 0.000000 0.509721
vt 0.550233 0.509721
vt 0.550233 0.490279
vt 0.449767 0.490279
vt 0.449767 0.509721
vt 0.000000 0.509721
vt 0.000000 0.490279
vt 1.000000 0.490279
vt 1.000000 0.509721
vt 0.449767 0.509721
vt 0.449767 0.490279
vt 0.550233 0.490279
vt 0.550233 0.509721
vt 0.903595 0.602983
vt 0.096405 0.602983
vt 0.096405 0.397017
vt 0.903595 0.397017
vt 0.903595 0.602983
vt 0.903595 0.397017
vt 0.096405 0.397017
vt 0.096405 0.602983
vt 0.397017 1.000000
vt 0.397017 0.000000
vt 0.602983 0.000000
vt 0.602983 1.000000
vt 0.096405 1.000000
vt 0.096405 0.000000
vt 0.903595 0.000000
vt 0.903595 1.000000
vt 0.602983 1.000000
vt 0.602983 0.000000
vt 0.397017 0.000000
vt 0.397017 1.000000
vt 0.903595 1.000000
vt 0.903595 0.000000
vt 0.096405 0.000000
vt 0.096405 1.000000
vt 0.903595 0.602983
vt 0.096405 0.602983
vt 0.096405 0.397017
vt 0.903595 0.397017
vt 0.903595 0.602983
vt 0.903595 0.397017
vt 0.096405 0.397017
vt 0.096405 0.602983
vt 0.397017 1.000000
vt 0.397017 0.000000
vt 0.602983 0.000000
vt 0.602983 1.000000
vt 0.096405 1.000000
vt 0.096405 0.000000
vt 0.903595 0.000000
vt 0.903595 1.000000
vt 0.602983 1.000000
vt 0.602983 0.000000
vt 0.397017 0.000000
vt 0.397017 1.000000
vt 0.903595 1.000000
vt 0.903595 0.000000
vt 0.096405 0.000000
vt 0.096405 1.000000
vt 0.485902 0.484617
vt 0.485902 0.515383
vt 0.514098 0.515383
vt 0.514098 0.484617
vt 0.000000 0.484617
vt 0.000000 0.515383
vt 1.000000 0.515383
vt 1.000000 0.484617
vt 0.514098 0.484617
vt 0.514098 0.515383
vt 0.485902 0.515383
vt 0.485902 0.484617
vt 1.000000 0.484617
vt 1.000000 0.515383
vt 0.000000 0.515383
vt 0.000000 0.484617
vt 0.485902 1.000000
vt 0.514098 1.000000
vt 0.514098 0.000000
vt 0.485902 0.000000
vt 0.514098 1.000000
vt 0.485902 1.000000
vt 0.485902 0.000000
vt 0.514098 0.000000
vt 0.514098 1.000000
vt 0.485902 1.000000
vt 0.485902 0.000000
vt 0.514098 0.000000
vt 0.514098 1.000000
vt 0.514098 0.000000
vt 0.485902 0.000000
vt 0.485902 1.000000
vt 1.000000 0.502728
vt 1.000000 0.497272
vt 0.000000 0.497272
vt 0.000000 0.502728
vt 0.514098 0.502728
vt 0.514098 0.497272
vt 0.485902 0.497272
vt 0.485902 0.502728
vt 0.000000 0.502728
vt 0.000000 0.497272
vt 1.000000 0.497272
vt 1.000000 0.502728
vt 0.485902 0.502728
vt 0.485902 0.497272
vt 0.514098 0.497272
vt 0.514098 0.502728
vt 0.903595 0.602983
vt 0.096405 0.602983
vt 0.096405 0.397017
vt 0.903595 0.397017
vt 0.903595 0.602983
vt 0.903595 0.397017
vt 0.096405 0.397017
vt 0.096405 0.602983
vt 0.397017 1.000000
vt 0.397017 0.000000
vt 0.602983 0.000000
vt 0.602983 1.000000
vt 0.096405 1.000000
vt 0.096405 0.000000
vt 0.903595 0.000000
vt 0.903595 1.000000
vt 0.602983 1.000000
vt 0.602983 0.000000
vt 0.397017 0.000000
vt 0.397017 1.000000
vt 0.903595 1.000000
vt 0.903595 0.000000
vt 0.096405 0.000000
vt 0.096405 1.000000
vt 0.903595 0.602983
vt 0.096405 0.602983
vt 0.096405 0.397017
vt 0.903595 0.397017
vt 0.903595 0.602983
vt 0.903595 0.397017
vt 0.096405 0.397017
vt 0.096405 0.602983
vt 0.397017 1.000000
vt 0.397017 0.000000
vt 0.602983 0.000000
vt 0.602983 1.000000
vt 0.096405 1.000000
vt 0.096405 0.000000
vt 0.903595 0.000000
vt 0.903595 1.000000
vt 0.602983 1.000000
vt 0.602983 0.000000
vt 0.397017 0.000000
vt 0.397017 1.000000
vt 0.903595 1.000000
vt 0.903595 0.000000
vt 0.096405 0.000000
vt 0.096405 1.000000
vt 0.375000 0.250000
vt 0.625000 0.250000
vt 0.625000 0.500000
vt 0.375000 0.500000
vt 0.375000 0.000000
vt 0.625000 0.000000
vt 0.375000 0.750000
vt 0.625000 0.750000
vt 0.625000 1.000000
vt 0.375000 1.000000
vt 0.125000 0.500000
vt 0.125000 0.750000
vt 0.875000 0.500000
vt 0.875000 0.750000
vt 0.625000 0.500000
vt 0.875000 0.500000
vt 0.875000 0.750000
vt 0.625000 0.750000
vt 0.625000 0.500000
vt 0.625000 0.750000
vt 0.875000 0.750000
vt 0.875000 0.500000
vt 0.375000 0.250000
vt 0.625000 0.250000
vt 0.625000 0.500000
vt 0.375000 0.500000
vt 0.375000 0.000000
vt 0.625000 0.000000
vt 0.375000 0.750000
vt 0.625000 0.750000
vt 0.625000 1.000000
vt 0.375000 1.000000
vt 0.125000 0.500000
vt 0.125000 0.750000
vt 0.875000 0.500000
vt 0.875000 0.750000
vt 0.550233 1.000000
vt 0.449767 1.000000
vt 0.449767 0.000000
vt 0.550233 0.000000
vt 0.550233 1.000000
vt 0.550233 0.000000
vt 0.449767 0.000000
vt 0.449767 1.000000
vt 1.000000 0.509721
vt 1.000000 0.490279
vt 0.000000 0.490279
vt 0.000000 0.509721
vt 0.550233 0.509721
vt 0.550233 0.490279
vt 0.449767 0.490279
vt 0.449767 0.509721
vt 0.000000 0.509721
vt 0.000000 0.490279
vt 1.000000 0.490279
vt 1.000000 0.509721
vt 0.449767 0.509721
vt 0.449767 0.490279
vt 0.550233 0.490279
vt 0.550233 0.509721
vn 0.0000 1.0000 0.0000
vn 0.0000 -1.0000 0.0000
vn 1.0000 0.0000 0.0000
vn 0.0000 0.0000 1.0000
vn -1.0000 0.0000 0.0000
vn 0.0000 0.0000 -1.0000
usemtl wall
s off
f 2/1/1 1/2/1 4/3/1 3/4/1
f 6/5/2 7/6/2 8/7/2 5/8/2
f 3/9/3 7/10/3 6/11/3 2/12/3
f 4/13/4 8/14/4 7/15/4 3/16/4
f 1/17/5 5/18/5 8/19/5 4/20/5
f 2/21/6 6/22/6 5/23/6 1/24/6
f 11/25/6 12/26/6 16/27/6 15/28/6
f 9/29/5 10/30/5 12/31/5 11/32/5
f 13/33/4 14/34/4 10/35/4 9/36/4
f 15/37/3 16/38/3 14/39/3 13/40/3
f 11/41/2 15/42/2 13/43/2 9/44/2
f 16/45/1 12/46/1 10/47/1 14/48/1
f 19/49/5 20/50/5 24/51/5 23/52/5
f 17/53/4 18/54/4 20/50/4 19/49/4
f 21/55/3 22/56/3 18/57/3 17/58/3
f 23/52/6 24/51/6 22/56/6 21/55/6
f 19/59/2 23/52/2 21/55/2 17/60/2
f 24/51/1 20/61/1 18/62/1 22/56/1
f 28/63/1 26/64/1 25/65/1 27/66/1
f 30/67/2 31/68/2 32/69/2 29/70/2
f 27/66/6 31/68/6 30/67/6 28/63/6
f 25/65/3 32/69/3 31/68/3 27/66/3
f 26/64/4 29/70/4 32/69/4 25/65/4
f 28/63/5 30/67/5 29/70/5 26/64/5
f 36/71/1 34/72/1 33/73/1 35/74/1
f 38/75/2 39/76/2 40/77/2 37/78/2
f 34/79/5 37/80/5 40/81/5 33/82/5
f 36/83/6 38/84/6 37/85/6 34/86/6
f 35/87/3 39/88/3 38/89/3 36/90/3
f 33/91/4 40/92/4 39/93/4 35/94/4
f 42/95/1 41/96/1 44/97/1 43/98/1
f 46/99/2 47/100/2 48/101/2 45/102/2
f 43/103/3 47/104/3 46/105/3 42/106/3
f 44/107/4 48/108/4 47/109/4 43/110/4
f 41/111/5 45/112/5 48/113/5 44/114/5
f 42/115/6 46/116/6 45/117/6 41/118/6
f 51/119/5 52/120/5 56/121/5 55/122/5
f 49/123/4 50/124/4 52/125/4 51/126/4
f 53/127/3 54/128/3 50/129/3 49/130/3
f 55/131/6 56/132/6 54/133/6 53/134/6
f 51/135/2 55/136/2 53/137/2 49/138/2
f 56/139/1 52/140/1 50/141/1 54/142/1
f 60/143/1 58/144/1 57/145/1 59/146/1
f 62/147/2 63/148/2 64/149/2 61/150/2
f 58/151/4 61/152/4 64/153/4 57/154/4
f 60/155/5 62/156/5 61/157/5 58/158/5
f 59/159/6 63/160/6 62/161/6 60/162/6
f 57/163/3 64/164/3 63/165/3 59/166/3
f 66/167/1 65/168/1 68/169/1 67/170/1
f 70/171/2 71/172/2 72/173/2 69/174/2
f 67/175/3 71/176/3 70/177/3 66/178/3
f 68/179/4 72/180/4 71/181/4 67/182/4
f 65/183/5 69/184/5 72/185/5 68/186/5
f 66/187/6 70/188/6 69/189/6 65/190/6
f 74/191/1 73/192/1 76/193/1 75/194/1
f 78/195/2 79/196/2 80/197/2 77/198/2
f 75/199/3 79/200/3 78/201/3 74/202/3
f 76/203/4 80/204/4 79/205/4 75/206/4
f 73/207/5 77/208/5 80/209/5 76/210/5
f 74/211/6 78/212/6 77/213/6 73/214/6
f 83/215/6 84/216/6 88/217/6 87/218/6
f 81/219/5 82/220/5 84/221/5 83/222/5
f 85/223/4 86/224/4 82/225/4 81/226/4
f 87/227/3 88/228/3 86/229/3 85/230/3
f 83/231/2 87/232/2 85/233/2 81/234/2
f 88/235/1 84/236/1 82/237/1 86/238/1
f 92/239/1 90/240/1 89/241/1 91/242/1
f 94/243/2 95/244/2 96/245/2 93/246/2
f 90/247/5 93/248/5 96/249/5 89/250/5
f 92/251/6 94/252/6 93/253/6 90/254/6
f 91/255/3 95/256/3 94/257/3 92/258/3
f 89/259/4 96/260/4 95/261/4 91/262/4
f 98/263/1 97/264/1 100/265/1 99/266/1
f 102/267/2 103/268/2 104/269/2 101/270/2
f 99/271/3 103/272/3 102/273/3 98/274/3
f 100/275/4 104/276/4 103/277/4 99/278/4
f 97/279/5 101/280/5 104/281/5 100/282/5
f 98/283/6 102/284/6 101/285/6 97/286/6
f 106/287/1 105/288/1 108/289/1 107/290/1
f 110/291/2 111/292/2 112/293/2 109/294/2
f 107/295/3 111/296/3 110/297/3 106/298/3
f 108/299/4 112/300/4 111/301/4 107/302/4
f 105/303/5 109/304/5 112/305/5 108/306/5
f 106/307/6 110/308/6 109/309/6 105/310/6
f 115/311/5 116/312/5 120/313/5 119/314/5
f 113/315/4 114/316/4 116/312/4 115/311/4
f 117/317/3 118/318/3 114/319/3 113/320/3
f 119/314/6 120/313/6 118/318/6 117/317/6
f 115/321/2 119/314/2 117/317/2 113/322/2
f 120/313/1 116/323/1 114/324/1 118/318/1
f 124/325/1 122/326/1 121/327/1 123/328/1
f 126/329/2 127/330/2 128/331/2 125/332/2
f 123/328/6 127/330/6 126/329/6 124/325/6
f 121/327/3 128/331/3 127/330/3 123/328/3
f 122/326/4 125/332/4 128/331/4 121/327/4
f 124/325/5 126/329/5 125/332/5 122/326/5
f 131/333/5 132/334/5 136/335/5 135/336/5
f 129/337/4 130/338/4 132/334/4 131/333/4
f 133/339/3 134/340/3 130/341/3 129/342/3
f 135/336/6 136/335/6 134/340/6 133/339/6
f 131/343/2 135/336/2 133/339/2 129/344/2
f 136/335/1 132/345/1 130/346/1 134/340/1
f 140/347/1 138/348/1 137/349/1 139/350/1
f 142/351/2 143/352/2 144/353/2 141/354/2
f 138/355/4 141/356/4 144/357/4 137/358/4
f 140/359/5 142/360/5 141/361/5 138/362/5
f 139/363/6 143/364/6 142/365/6 140/366/6
f 137/367/3 144/368/3 143/369/3 139/370/3
