# Blender 3.3.1
# www.blender.org
mtllib door.mtl
o Door.006
v -0.278298 0.345298 -0.015404
v -0.293835 0.345298 -0.015404
v -0.278298 0.345298 -0.008434
v -0.293835 0.345298 -0.008434
v -0.278298 0.336027 -0.015404
v -0.293835 0.336027 -0.015404
v -0.278298 0.336027 -0.008434
v -0.293835 0.336027 -0.008434
v -0.278256 0.345298 -0.016093
v -0.293659 0.345298 -0.017007
v -0.278256 0.336027 -0.016093
v -0.293659 0.336027 -0.017007
v -0.278012 0.345298 -0.016775
v -0.293015 0.345298 -0.018586
v -0.278012 0.336027 -0.016775
v -0.293015 0.336027 -0.018586
v -0.277571 0.345298 -0.017436
v -0.291915 0.345298 -0.020114
v -0.277571 0.336027 -0.017436
v -0.291915 0.336027 -0.020114
v -0.276941 0.345298 -0.018065
v -0.290379 0.345298 -0.021564
v -0.276941 0.336027 -0.018065
v -0.290379 0.336027 -0.021564
v -0.276132 0.345298 -0.018652
v -0.288432 0.345298 -0.022911
v -0.276132 0.336027 -0.018652
v -0.288432 0.336027 -0.022911
v -0.275159 0.345297 -0.019186
v -0.286108 0.345297 -0.024132
v -0.275159 0.336027 -0.019186
v -0.286108 0.336027 -0.024132
v -0.274038 0.345297 -0.019659
v -0.283448 0.345297 -0.025205
v -0.274038 0.336027 -0.019659
v -0.283448 0.336027 -0.025205
v -0.272789 0.345297 -0.020061
v -0.280496 0.345297 -0.026113
v -0.272789 0.336027 -0.020061
v -0.280496 0.336027 -0.026113
v -0.271433 0.345297 -0.020387
v -0.277305 0.345297 -0.026840
v -0.271433 0.336027 -0.020387
v -0.277305 0.336027 -0.026840
v -0.269993 0.345297 -0.020630
v -0.273929 0.345297 -0.027372
v -0.269993 0.336027 -0.020630
v -0.273929 0.336027 -0.027372
v -0.268495 0.345297 -0.020786
v -0.270427 0.345297 -0.027702
v -0.268495 0.336027 -0.020786
v -0.270427 0.336027 -0.027702
v -0.266964 0.345297 -0.020853
v -0.266858 0.345297 -0.027822
v -0.266964 0.336027 -0.020853
v -0.266858 0.336027 -0.027822
v -0.242101 0.345297 -0.020853
v -0.241995 0.345297 -0.027822
v -0.242101 0.336027 -0.020853
v -0.241995 0.336027 -0.027822
v 0.000031 -0.000031 -0.009746
v -0.305064 -0.000031 -0.009746
v 0.000031 -0.000031 0.009011
v -0.305064 -0.000031 0.009011
v 0.000031 0.623794 -0.009746
v -0.305064 0.623794 -0.009746
v -0.305064 0.623794 0.009011
v 0.000031 0.623794 0.009011
vn -0.0000 1.0000 -0.0000
vn -0.0000 -0.0000 1.0000
vn -0.0000 -1.0000 -0.0000
vn -0.9985 -0.0000 -0.0549
vn -0.9688 -0.0000 -0.2479
vn 1.0000 -0.0000 -0.0000
vn 0.9995 -0.0000 0.0309
vn -1.0000 -0.0000 -0.0000
vn 0.9792 -0.0000 0.2030
vn 0.8921 -0.0000 0.4517
vn 0.7715 -0.0000 0.6362
vn -0.8736 -0.0000 -0.4867
vn -0.7508 -0.0000 -0.6606
vn -0.6281 -0.0000 -0.7781
vn 0.6477 -0.0000 0.7619
vn 0.5344 -0.0000 0.8452
vn -0.5171 -0.0000 -0.8559
vn -0.4196 -0.0000 -0.9077
vn -0.3340 -0.0000 -0.9426
vn 0.4347 -0.0000 0.9006
vn 0.3475 -0.0000 0.9377
vn 0.2700 -0.0000 0.9629
vn -0.2580 -0.0000 -0.9662
vn -0.1889 -0.0000 -0.9820
vn 0.1999 -0.0000 0.9798
vn 0.1351 -0.0000 0.9908
vn 0.0737 -0.0000 0.9973
vn -0.1247 -0.0000 -0.9922
vn -0.0637 -0.0000 -0.9980
vn -0.0169 -0.0000 -0.9999
vn 0.0218 -0.0000 0.9998
vn 0.9999 -0.0000 0.0152
vn -0.0000 -0.0000 -1.0000
vt 0.375000 0.000000
vt 0.125000 0.750000
vt 0.875000 0.750000
vt 0.625000 0.000000
vt 0.375000 0.250000
vt 0.125000 0.500000
vt 0.625000 0.250000
vt 0.875000 0.500000
vt 0.375000 0.750000
vt 0.625000 0.750000
vt 0.375000 0.500000
vt 0.625000 0.500000
vt 0.125000 0.750000
vt 0.375000 0.000000
vt 0.625000 0.000000
vt 0.875000 0.750000
vt 0.375000 0.750000
vt 0.625000 0.750000
vt 0.125000 0.750000
vt 0.375000 0.000000
vt 0.625000 0.000000
vt 0.875000 0.750000
vt 0.375000 0.750000
vt 0.625000 0.750000
vt 0.125000 0.750000
vt 0.375000 0.000000
vt 0.875000 0.750000
vt 0.625000 0.000000
vt 0.375000 0.750000
vt 0.625000 0.750000
vt 0.125000 0.750000
vt 0.375000 0.000000
vt 0.625000 0.000000
vt 0.875000 0.750000
vt 0.375000 0.750000
vt 0.625000 0.750000
vt 0.375000 0.000000
vt 0.125000 0.750000
vt 0.625000 0.000000
vt 0.875000 0.750000
vt 0.375000 0.750000
vt 0.625000 0.750000
vt 0.125000 0.750000
vt 0.375000 0.000000
vt 0.875000 0.750000
vt 0.625000 0.000000
vt 0.375000 0.750000
vt 0.625000 0.750000
vt 0.125000 0.750000
vt 0.375000 0.000000
vt 0.625000 0.000000
vt 0.875000 0.750000
vt 0.375000 0.750000
vt 0.625000 0.750000
vt 0.125000 0.750000
vt 0.375000 0.000000
vt 0.875000 0.750000
vt 0.625000 0.000000
vt 0.375000 0.750000
vt 0.625000 0.750000
vt 0.125000 0.750000
vt 0.375000 0.000000
vt 0.625000 0.000000
vt 0.875000 0.750000
vt 0.375000 0.750000
vt 0.625000 0.750000
vt 0.125000 0.750000
vt 0.375000 0.000000
vt 0.625000 0.000000
vt 0.875000 0.750000
vt 0.375000 0.750000
vt 0.625000 0.750000
vt 0.125000 0.750000
vt 0.375000 0.000000
vt 0.875000 0.750000
vt 0.625000 0.000000
vt 0.375000 0.750000
vt 0.625000 0.750000
vt 0.125000 0.750000
vt 0.375000 0.000000
vt 0.625000 0.000000
vt 0.875000 0.750000
vt 0.375000 0.750000
vt 0.625000 0.750000
vt 0.125000 0.750000
vt 0.375000 1.000000
vt 0.375000 0.000000
vt 0.625000 1.000000
vt 0.625000 0.000000
vt 0.875000 0.750000
vt 0.375000 0.750000
vt 0.625000 0.750000
vt -0.098183 1.863033
vt -1.999309 -1.302257
vt 1.449871 1.863033
vt -0.099566 -1.216143
vt 1.451255 -1.302257
vt -1.873433 -1.185882
vt 2.999309 -1.302256
vt -0.224560 -1.081345
vt -0.098183 -1.302257
vt -1.849743 1.887372
vt 1.449871 -1.302256
vt -0.099566 1.953731
vt 2.999309 1.863033
vt -0.192386 1.852144
vt 1.451254 1.863033
vt -1.755135 1.764359
s 1
usemtl Material
f 1/1/1 2/4/1 4/7/1 3/5/1
f 3/5/2 4/7/2 8/12/2 7/11/2
f 7/11/3 8/12/3 6/10/3 5/9/3
f 6/10/4 2/3/4 10/16/5 12/18/5
f 3/6/6 7/11/6 5/9/7 1/2/7
f 8/12/8 4/8/8 2/3/4 6/10/4
f 9/13/9 11/17/9 15/23/10 13/19/10
f 5/9/3 6/10/3 12/18/3 11/17/3
f 2/4/1 1/1/1 9/14/1 10/15/1
f 1/2/7 5/9/7 11/17/9 9/13/9
f 13/19/10 15/23/10 19/29/11 17/25/11
f 10/15/1 9/14/1 13/20/1 14/21/1
f 12/18/5 10/16/5 14/22/12 16/24/12
f 11/17/3 12/18/3 16/24/3 15/23/3
f 20/30/13 18/27/13 22/34/14 24/36/14
f 14/21/1 13/20/1 17/26/1 18/28/1
f 16/24/12 14/22/12 18/27/13 20/30/13
f 15/23/3 16/24/3 20/30/3 19/29/3
f 21/31/15 23/35/15 27/41/16 25/38/16
f 19/29/3 20/30/3 24/36/3 23/35/3
f 17/25/11 19/29/11 23/35/15 21/31/15
f 18/28/1 17/26/1 21/32/1 22/33/1
f 26/39/1 25/37/1 29/44/1 30/46/1
f 22/33/1 21/32/1 25/37/1 26/39/1
f 24/36/14 22/34/14 26/40/17 28/42/17
f 23/35/3 24/36/3 28/42/3 27/41/3
f 32/48/18 30/45/18 34/52/19 36/54/19
f 28/42/17 26/40/17 30/45/18 32/48/18
f 27/41/3 28/42/3 32/48/3 31/47/3
f 25/38/16 27/41/16 31/47/20 29/43/20
f 33/49/21 35/53/21 39/59/22 37/55/22
f 31/47/3 32/48/3 36/54/3 35/53/3
f 29/43/20 31/47/20 35/53/21 33/49/21
f 30/46/1 29/44/1 33/50/1 34/51/1
f 40/60/23 38/57/23 42/64/24 44/66/24
f 34/51/1 33/50/1 37/56/1 38/58/1
f 36/54/19 34/52/19 38/57/23 40/60/23
f 35/53/3 36/54/3 40/60/3 39/59/3
f 43/65/3 44/66/3 48/72/3 47/71/3
f 39/59/3 40/60/3 44/66/3 43/65/3
f 37/55/22 39/59/22 43/65/25 41/61/25
f 38/58/1 37/56/1 41/62/1 42/63/1
f 45/67/26 47/71/26 51/77/27 49/73/27
f 41/61/25 43/65/25 47/71/26 45/67/26
f 42/63/1 41/62/1 45/68/1 46/69/1
f 44/66/24 42/64/24 46/70/28 48/72/28
f 52/78/29 50/75/29 54/82/30 56/84/30
f 46/69/1 45/68/1 49/74/1 50/76/1
f 48/72/28 46/70/28 50/75/29 52/78/29
f 47/71/3 48/72/3 52/78/3 51/77/3
f 53/79/31 55/83/31 59/91/2 57/85/2
f 51/77/3 52/78/3 56/84/3 55/83/3
f 49/73/27 51/77/27 55/83/31 53/79/31
f 50/76/1 49/74/1 53/80/1 54/81/1
f 59/91/32 60/92/32 58/88/32 57/86/32
f 54/81/1 53/80/1 57/87/1 58/89/1
f 56/84/30 54/82/30 58/90/33 60/92/33
f 55/83/3 56/84/3 60/92/3 59/91/3
s 0
usemtl Door
f 67/105/2 64/99/2 63/97/2 68/107/2
f 65/101/33 61/93/33 62/95/33 66/103/33
f 68/108/1 65/102/1 66/104/1 67/106/1
f 65/102/6 68/108/6 63/98/6 61/94/6
f 64/100/3 62/96/3 61/94/3 63/98/3
f 66/104/8 62/96/8 64/100/8 67/106/8
o Door.005
v -0.278298 0.336026 0.014142
v -0.293835 0.336026 0.014142
v -0.278298 0.336026 0.007172
v -0.293835 0.336026 0.007172
v -0.278298 0.345297 0.014142
v -0.293835 0.345297 0.014142
v -0.278298 0.345297 0.007172
v -0.293835 0.345297 0.007172
v -0.278256 0.336026 0.014832
v -0.293659 0.336026 0.015745
v -0.278256 0.345297 0.014832
v -0.293659 0.345297 0.015745
v -0.278012 0.336026 0.015513
v -0.293015 0.336026 0.017325
v -0.278012 0.345297 0.015513
v -0.293015 0.345297 0.017325
v -0.277571 0.336027 0.016174
v -0.291915 0.336027 0.018852
v -0.277571 0.345297 0.016174
v -0.291915 0.345297 0.018852
v -0.276941 0.336027 0.016803
v -0.290379 0.336027 0.020302
v -0.276941 0.345297 0.016803
v -0.290379 0.345297 0.020302
v -0.276132 0.336027 0.017390
v -0.288432 0.336027 0.021649
v -0.276132 0.345297 0.017390
v -0.288432 0.345297 0.021649
v -0.275159 0.336027 0.017925
v -0.286108 0.336027 0.022870
v -0.275159 0.345297 0.017925
v -0.286108 0.345297 0.022870
v -0.274038 0.336027 0.018397
v -0.283448 0.336027 0.023944
v -0.274038 0.345297 0.018397
v -0.283448 0.345297 0.023944
v -0.272789 0.336027 0.018800
v -0.280496 0.336027 0.024852
v -0.272789 0.345297 0.018800
v -0.280496 0.345297 0.024852
v -0.271433 0.336027 0.019125
v -0.277305 0.336027 0.025578
v -0.271433 0.345297 0.019125
v -0.277305 0.345297 0.025578
v -0.269993 0.336027 0.019368
v -0.273929 0.336027 0.026111
v -0.269993 0.345297 0.019368
v -0.273929 0.345297 0.026111
v -0.268495 0.336027 0.019524
v -0.270427 0.336027 0.026440
v -0.268495 0.345297 0.019524
v -0.270427 0.345297 0.026440
v -0.266964 0.336027 0.019591
v -0.266858 0.336027 0.026561
v -0.266964 0.345298 0.019591
v -0.266858 0.345298 0.026561
v -0.242101 0.336027 0.019591
v -0.241995 0.336027 0.026561
v -0.242101 0.345298 0.019591
v -0.241995 0.345298 0.026561
vn -0.0000 -1.0000 -0.0000
vn -0.0000 -0.0000 -1.0000
vn -0.0000 1.0000 -0.0000
vn -0.9985 -0.0000 0.0549
vn -0.9688 -0.0000 0.2479
vn 1.0000 -0.0000 -0.0000
vn 0.9995 -0.0000 -0.0309
vn -1.0000 -0.0000 -0.0000
vn 0.9792 -0.0000 -0.2030
vn 0.8921 -0.0000 -0.4518
vn 0.8921 -0.0000 -0.4517
vn 0.7715 -0.0000 -0.6362
vn -0.8736 -0.0000 0.4867
vn -0.8735 -0.0000 0.4867
vn -0.7508 -0.0000 0.6606
vn -0.6281 -0.0000 0.7781
vn 0.6477 -0.0000 -0.7619
vn 0.5344 -0.0000 -0.8452
vn -0.5171 -0.0000 0.8559
vn -0.4196 -0.0000 0.9077
vn -0.3341 -0.0000 0.9425
vn 0.4347 -0.0000 -0.9006
vn 0.3475 -0.0000 -0.9377
vn 0.2700 -0.0000 -0.9629
vn -0.2580 -0.0000 0.9662
vn -0.1889 -0.0000 0.9820
vn 0.1999 -0.0000 -0.9798
vn 0.1351 -0.0000 -0.9908
vn 0.0737 -0.0000 -0.9973
vn -0.1247 -0.0000 0.9922
vn -0.0637 -0.0000 0.9980
vn -0.0169 -0.0000 0.9999
vn 0.0218 -0.0000 -0.9998
vn 0.9999 -0.0000 -0.0152
vn -0.0000 -0.0000 1.0000
vt 0.375000 0.000000
vt 0.125000 0.750000
vt 0.875000 0.750000
vt 0.625000 0.000000
vt 0.375000 0.250000
vt 0.125000 0.500000
vt 0.625000 0.250000
vt 0.875000 0.500000
vt 0.375000 0.750000
vt 0.625000 0.750000
vt 0.375000 0.500000
vt 0.625000 0.500000
vt 0.125000 0.750000
vt 0.375000 0.000000
vt 0.625000 0.000000
vt 0.875000 0.750000
vt 0.375000 0.750000
vt 0.625000 0.750000
vt 0.125000 0.750000
vt 0.375000 0.000000
vt 0.625000 0.000000
vt 0.875000 0.750000
vt 0.375000 0.750000
vt 0.625000 0.750000
vt 0.125000 0.750000
vt 0.375000 0.000000
vt 0.875000 0.750000
vt 0.625000 0.000000
vt 0.375000 0.750000
vt 0.625000 0.750000
vt 0.125000 0.750000
vt 0.375000 0.000000
vt 0.625000 0.000000
vt 0.875000 0.750000
vt 0.375000 0.750000
vt 0.625000 0.750000
vt 0.375000 0.000000
vt 0.125000 0.750000
vt 0.625000 0.000000
vt 0.875000 0.750000
vt 0.375000 0.750000
vt 0.625000 0.750000
vt 0.125000 0.750000
vt 0.375000 0.000000
vt 0.875000 0.750000
vt 0.625000 0.000000
vt 0.375000 0.750000
vt 0.625000 0.750000
vt 0.125000 0.750000
vt 0.375000 0.000000
vt 0.625000 0.000000
vt 0.875000 0.750000
vt 0.375000 0.750000
vt 0.625000 0.750000
vt 0.125000 0.750000
vt 0.375000 0.000000
vt 0.875000 0.750000
vt 0.625000 0.000000
vt 0.375000 0.750000
vt 0.625000 0.750000
vt 0.125000 0.750000
vt 0.375000 0.000000
vt 0.625000 0.000000
vt 0.875000 0.750000
vt 0.375000 0.750000
vt 0.625000 0.750000
vt 0.125000 0.750000
vt 0.375000 0.000000
vt 0.625000 0.000000
vt 0.875000 0.750000
vt 0.375000 0.750000
vt 0.625000 0.750000
vt 0.125000 0.750000
vt 0.375000 0.000000
vt 0.875000 0.750000
vt 0.625000 0.000000
vt 0.375000 0.750000
vt 0.625000 0.750000
vt 0.125000 0.750000
vt 0.375000 0.000000
vt 0.625000 0.000000
vt 0.875000 0.750000
vt 0.375000 0.750000
vt 0.625000 0.750000
vt 0.125000 0.750000
vt 0.375000 1.000000
vt 0.375000 0.000000
vt 0.625000 1.000000
vt 0.625000 0.000000
vt 0.875000 0.750000
vt 0.375000 0.750000
vt 0.625000 0.750000
s 1
usemtl Material
f 69/109/34 70/112/34 72/115/34 71/113/34
f 71/113/35 72/115/35 76/120/35 75/119/35
f 75/119/36 76/120/36 74/118/36 73/117/36
f 74/118/37 70/111/37 78/124/38 80/126/38
f 71/114/39 75/119/39 73/117/40 69/110/40
f 76/120/41 72/116/41 70/111/37 74/118/37
f 77/121/42 79/125/42 83/131/43 81/127/44
f 73/117/36 74/118/36 80/126/36 79/125/36
f 70/112/34 69/109/34 77/122/34 78/123/34
f 69/110/40 73/117/40 79/125/42 77/121/42
f 81/127/44 83/131/43 87/137/45 85/133/45
f 78/123/34 77/122/34 81/128/34 82/129/34
f 80/126/38 78/124/38 82/130/46 84/132/47
f 79/125/36 80/126/36 84/132/36 83/131/36
f 88/138/48 86/135/48 90/142/49 92/144/49
f 82/129/34 81/128/34 85/134/34 86/136/34
f 84/132/47 82/130/46 86/135/48 88/138/48
f 83/131/36 84/132/36 88/138/36 87/137/36
f 89/139/50 91/143/50 95/149/51 93/146/51
f 87/137/36 88/138/36 92/144/36 91/143/36
f 85/133/45 87/137/45 91/143/50 89/139/50
f 86/136/34 85/134/34 89/140/34 90/141/34
f 94/147/34 93/145/34 97/152/34 98/154/34
f 90/141/34 89/140/34 93/145/34 94/147/34
f 92/144/49 90/142/49 94/148/52 96/150/52
f 91/143/36 92/144/36 96/150/36 95/149/36
f 100/156/53 98/153/53 102/160/54 104/162/54
f 96/150/52 94/148/52 98/153/53 100/156/53
f 95/149/36 96/150/36 100/156/36 99/155/36
f 93/146/51 95/149/51 99/155/55 97/151/55
f 101/157/56 103/161/56 107/167/57 105/163/57
f 99/155/36 100/156/36 104/162/36 103/161/36
f 97/151/55 99/155/55 103/161/56 101/157/56
f 98/154/34 97/152/34 101/158/34 102/159/34
f 108/168/58 106/165/58 110/172/59 112/174/59
f 102/159/34 101/158/34 105/164/34 106/166/34
f 104/162/54 102/160/54 106/165/58 108/168/58
f 103/161/36 104/162/36 108/168/36 107/167/36
f 111/173/36 112/174/36 116/180/36 115/179/36
f 107/167/36 108/168/36 112/174/36 111/173/36
f 105/163/57 107/167/57 111/173/60 109/169/60
f 106/166/34 105/164/34 109/170/34 110/171/34
f 113/175/61 115/179/61 119/185/62 117/181/62
f 109/169/60 111/173/60 115/179/61 113/175/61
f 110/171/34 109/170/34 113/176/34 114/177/34
f 112/174/59 110/172/59 114/178/63 116/180/63
f 120/186/64 118/183/64 122/190/65 124/192/65
f 114/177/34 113/176/34 117/182/34 118/184/34
f 116/180/63 114/178/63 118/183/64 120/186/64
f 115/179/36 116/180/36 120/186/36 119/185/36
f 121/187/66 123/191/66 127/199/35 125/193/35
f 119/185/36 120/186/36 124/192/36 123/191/36
f 117/181/62 119/185/62 123/191/66 121/187/66
f 118/184/34 117/182/34 121/188/34 122/189/34
f 127/199/67 128/200/67 126/196/67 125/194/67
f 122/189/34 121/188/34 125/195/34 126/197/34
f 124/192/65 122/190/65 126/198/68 128/200/68
f 123/191/36 124/192/36 128/200/36 127/199/36
