# Blender 3.3.1
# www.blender.org
mtllib kusen.mtl
o Door.001
v 0.154305 0.000001 -0.029214
v -0.153587 0.000001 -0.029214
v 0.154305 0.000001 0.030786
v -0.153587 0.000001 0.030786
v 0.154305 0.625613 -0.029214
v -0.153587 0.625613 -0.029214
v -0.153587 0.625613 0.030786
v 0.154305 0.625613 0.030786
v 0.201551 0.000000 -0.029214
v 0.201551 0.666667 -0.029214
v -0.201490 0.000000 -0.029214
v -0.201490 0.666667 -0.029214
v -0.201490 0.000000 0.030786
v -0.201490 0.666667 0.030786
v 0.201551 0.000000 0.030786
v 0.201551 0.666667 0.030786
vn -0.0000 1.0000 -0.0000
vn 1.0000 -0.0000 -0.0000
vn -0.0000 -1.0000 -0.0000
vn -1.0000 -0.0000 -0.0000
vn -0.0000 -0.0000 -1.0000
vn -0.0000 -0.0000 1.0000
vt -0.627036 0.180545
vt 0.940778 2.900280
vt 0.940778 -0.461843
vt -0.627047 -0.483407
vt 0.136211 -1.999589
vt 0.811392 2.900280
vt 0.811392 -0.461843
vt -0.527737 -1.999587
vt 0.722046 0.180544
vt 0.940778 1.551192
vt 0.722046 -0.483404
vt 0.940778 0.887244
vt -0.527737 -0.650501
vt 0.811392 0.887244
vt 0.136211 -0.650501
vt 0.811392 1.551192
vt -0.627049 0.259109
vt 0.940778 2.978028
vt -0.627039 0.258293
vt 0.368326 -1.158584
vt 0.810570 0.259109
vt 0.810575 0.258292
vt 0.940778 -0.539590
vt 0.236339 -1.999592
vt -0.627049 -0.561154
vt 0.368326 -1.978028
vt 0.236340 -0.561972
vt 0.810576 -0.561152
vt 0.811392 -0.561154
vt 0.367510 -1.999592
vt -0.627049 -1.999589
vt 0.497712 -1.999592
vt 0.367510 -0.561972
vt -0.627049 -0.561971
vt -0.627049 0.390279
vt 0.811392 2.999592
vt 0.235523 -1.999592
vt 0.497712 -1.137020
vt 0.810570 0.390280
vt 0.235523 -0.561971
s 0
usemtl Door
f 14/32/1 16/38/1 10/20/1 12/26/1
f 10/21/2 16/39/2 15/35/2 9/17/2
f 13/29/3 11/23/3 2/3/3 4/7/3
f 6/12/2 7/14/2 4/7/2 2/3/2
f 12/27/4 11/24/4 13/30/4 14/33/4
f 15/36/3 3/6/3 1/2/3 9/18/3
f 5/9/5 10/22/5 9/19/5 1/1/5
f 2/4/5 11/25/5 12/28/5 6/11/5
f 7/13/6 14/34/6 13/31/6 4/8/6
f 3/5/6 15/37/6 16/40/6 8/15/6
f 8/15/6 16/40/6 14/34/6 7/13/6
f 6/11/5 12/28/5 10/22/5 5/9/5
f 5/10/4 1/2/4 3/6/4 8/16/4
f 8/16/3 7/14/3 6/12/3 5/10/3
