# Blender 3.3.1
# www.blender.org
mtllib bakmandi.mtl
o bak
v 4.023885 -0.001349 -2.383516
v 4.023885 -0.001349 -2.868996
v 2.894830 -0.001349 -2.383516
v 2.894830 -0.001349 -2.868996
v 2.933178 -0.001349 -2.421865
v 3.985537 -0.001349 -2.421865
v 3.985537 -0.001349 -2.830648
v 2.933178 -0.001349 -2.830648
v 2.933178 0.017464 -2.421865
v 3.985537 0.017464 -2.421865
v 3.985537 0.017464 -2.830648
v 2.933178 0.017464 -2.830648
v 2.894830 0.017464 -2.383516
v 4.023885 0.017464 -2.383516
v 4.023885 0.017464 -2.868996
v 2.894830 0.017464 -2.868996
v 2.933178 0.299664 -2.421865
v 3.985537 0.299664 -2.421865
v 3.985537 0.299664 -2.830648
v 2.933178 0.299664 -2.830648
v 2.905436 0.299664 -2.394122
v 2.894830 0.289059 -2.383516
v 2.900133 0.298244 -2.388819
v 2.896251 0.294362 -2.384937
v 4.023885 0.289059 -2.383516
v 4.013279 0.299664 -2.394122
v 4.022464 0.294362 -2.384937
v 4.018582 0.298244 -2.388819
v 4.023885 0.289059 -2.868996
v 4.013279 0.299664 -2.858391
v 4.022464 0.294362 -2.867575
v 4.018582 0.298244 -2.863693
v 2.894830 0.289059 -2.868996
v 2.905436 0.299664 -2.858391
v 2.896251 0.294362 -2.867575
v 2.900133 0.298244 -2.863693
v 2.894830 0.255626 -2.383516
v 4.023885 0.255626 -2.383516
v 2.894830 0.255626 -2.868996
v 4.023885 0.255626 -2.868996
v 4.023885 0.260830 -2.383516
v 4.023885 0.260830 -2.868996
v 2.894830 0.260830 -2.383516
v 2.894830 0.260830 -2.868996
vn -0.0000 -1.0000 -0.0000
vn -0.0000 1.0000 -0.0000
vn -0.0984 0.9903 -0.0984
vn -0.0984 0.9903 0.0984
vn -0.0000 -0.0000 -1.0000
vn -0.0000 -0.0000 1.0000
vn 0.0984 0.9903 0.0984
vn -1.0000 -0.0000 -0.0000
vn 1.0000 -0.0000 -0.0000
vn -0.9929 0.1191 -0.0000
vn -0.0000 0.1191 -0.9929
vn 0.9929 0.1191 -0.0000
vn 0.0984 0.9903 -0.0984
vn -0.0000 0.1191 0.9929
vn -0.0000 0.4260 0.9047
vn -0.0000 0.7071 0.7071
vn -0.4919 0.8687 0.0583
vn 0.1316 0.9825 0.1316
vn 0.9047 0.4260 -0.0000
vn 0.7071 0.7071 -0.0000
vn 0.1316 0.9825 -0.1316
vn -0.0000 0.4260 -0.9047
vn -0.0000 0.7071 -0.7071
vn -0.4919 0.8687 -0.0583
vn -0.9659 0.2588 -0.0000
vn -0.7071 0.7071 -0.0000
vt 0.637887 1.564331
vt -0.954487 -1.341627
vt 0.637887 2.579669
vt 0.305142 -1.934932
vt 0.399107 2.902796
vt 2.999204 1.564332
vt -1.999204 0.658991
vt 2.999204 2.579669
vt -1.518191 1.993263
vt 2.919001 1.644534
vt 0.718090 1.644533
vt 0.718089 2.499466
vt 2.919002 2.499466
vt 2.444550 -1.130962
vt 2.296938 0.314697
vt 1.238894 0.568232
vt 1.945402 -1.298667
vt -1.950057 0.658583
vt -0.924000 -1.305936
vt 0.328141 -1.886075
vt 0.414969 2.869323
vt -1.481216 1.964707
vt -1.206670 0.593194
vt 2.954121 -1.771622
vt -0.505744 -0.711078
vt 2.954122 0.759947
vt 0.637887 0.306293
vt 0.551682 -0.919644
vt 1.695857 1.562738
vt 0.591950 2.196434
vt 1.614689 -1.934932
vt -0.868434 1.547116
vt -1.257052 0.589688
vt -1.333283 0.579254
vt -1.280912 0.586634
vt -1.306558 0.582932
vt -0.586161 -0.815019
vt -0.534472 -0.754377
vt -0.567435 -0.794293
vt -0.550476 -0.774087
vt 0.636294 -1.081909
vt 0.630468 2.369006
vt 0.609292 -1.005563
vt 0.613252 2.252145
vt 0.635460 -1.056316
vt 0.636294 2.334487
vt 0.624712 -1.030669
vt 0.628111 2.292960
vt -0.964136 1.636630
vt -0.910554 1.582035
vt -0.946156 1.617932
vt -0.927839 1.599470
vt -1.414314 0.579312
vt -0.634060 -0.883327
vt -1.026381 1.689198
vt 0.611405 -1.185337
vt 0.598697 2.439396
vt -0.616187 -0.862908
vt 0.616824 -1.163519
vt 0.611600 2.410582
vt -1.389012 0.582806
vt -1.008648 1.670286
s 1
usemtl ceiling
f 6/11/1 5/10/1 8/13/1 7/12/1
f 6/11/1 1/1/1 3/6/1 5/10/1
f 7/12/1 2/3/1 1/1/1 6/11/1
f 8/13/1 4/8/1 2/3/1 7/12/1
f 5/10/1 3/6/1 4/8/1 8/13/1
f 10/15/2 11/16/2 12/17/2 9/14/2
f 17/23/2 20/32/2 34/50/3 21/33/4
f 10/15/5 9/14/5 17/24/5 18/26/5
f 12/17/6 11/16/6 19/27/6 20/31/6
f 18/25/2 17/23/2 21/33/4 26/38/7
f 4/9/8 3/7/8 13/18/8 16/22/8
f 1/2/9 2/4/9 15/20/9 14/19/9
f 2/5/5 4/9/5 16/22/5 15/21/5
f 3/7/6 1/2/6 14/19/6 13/18/6
f 44/62/8 43/61/8 22/34/10 33/49/10
f 42/60/5 44/62/5 33/49/11 29/42/11
f 41/58/9 42/59/9 29/41/12 25/37/12
f 19/28/2 18/25/2 26/38/7 30/43/13
f 9/14/9 12/17/9 20/31/9 17/24/9
f 11/16/8 10/15/8 18/26/8 19/29/8
f 20/32/2 19/30/2 30/44/13 34/50/3
f 22/34/14 25/37/14 27/39/15 24/36/15
f 24/36/15 27/39/15 28/40/16 23/35/16
f 23/35/17 28/40/18 26/38/7 21/33/4
f 25/37/12 29/41/12 31/45/19 27/39/19
f 27/39/19 31/45/19 32/47/20 28/40/20
f 28/40/18 32/47/21 30/43/13 26/38/7
f 29/42/11 33/49/11 35/51/22 31/46/22
f 31/46/22 35/51/22 36/52/23 32/48/23
f 32/48/21 36/52/24 34/50/3 30/44/13
f 33/49/10 22/34/10 24/36/25 35/51/25
f 35/51/26 24/36/26 23/35/17 36/52/24
f 36/52/24 23/35/17 21/33/4 34/50/3
f 43/61/6 41/58/6 25/37/14 22/34/14
f 13/18/6 14/19/6 38/54/6 37/53/6
f 14/19/9 15/20/9 40/56/9 38/54/9
f 15/21/5 16/22/5 39/55/5 40/57/5
f 16/22/8 13/18/8 37/53/8 39/55/8
f 37/53/6 38/54/6 41/58/6 43/61/6
f 38/54/9 40/56/9 42/59/9 41/58/9
f 40/57/5 39/55/5 44/62/5 42/60/5
f 39/55/8 37/53/8 43/61/8 44/62/8
