# Blender 3.3.1
# www.blender.org
mtllib sabun.mtl
o sabun.001
v 3.993851 0.297364 -2.502659
v 3.994785 0.297364 -2.498567
v 3.997401 0.297364 -2.495286
v 4.001182 0.297364 -2.493466
v 4.005378 0.297364 -2.493466
v 4.009159 0.297364 -2.495286
v 4.011775 0.297364 -2.498567
v 4.012709 0.297364 -2.502659
v 4.011775 0.297364 -2.506750
v 4.009159 0.297364 -2.510031
v 4.005378 0.297364 -2.511851
v 4.001182 0.297364 -2.511851
v 3.997401 0.297364 -2.510031
v 3.994785 0.297364 -2.506750
v 3.994785 0.306867 -2.498567
v 3.993851 0.306867 -2.502659
v 3.997401 0.306867 -2.495286
v 4.001182 0.306867 -2.493466
v 4.005378 0.306867 -2.493466
v 4.009159 0.306867 -2.495286
v 4.011775 0.306867 -2.498567
v 4.012709 0.306867 -2.502659
v 4.011775 0.306867 -2.506750
v 4.009159 0.306867 -2.510031
v 4.005378 0.306867 -2.511851
v 4.001182 0.306867 -2.511851
v 3.997401 0.306867 -2.510031
v 3.994785 0.306867 -2.506750
v 4.001288 0.340931 -2.497414
v 4.001069 0.340931 -2.502659
v 4.001902 0.340931 -2.493208
v 4.002788 0.340931 -2.490875
v 4.003772 0.340931 -2.490875
v 4.004659 0.340931 -2.493208
v 4.005272 0.340931 -2.497414
v 4.005492 0.340931 -2.502659
v 4.005272 0.340931 -2.507903
v 4.004659 0.340931 -2.512109
v 4.003772 0.340931 -2.514443
v 4.002788 0.340931 -2.514443
v 4.001902 0.340931 -2.512109
v 4.001288 0.340931 -2.507903
v 4.001288 0.343646 -2.497414
v 4.001069 0.343646 -2.502659
v 4.001902 0.343646 -2.493208
v 4.002788 0.343646 -2.490875
v 4.003772 0.343646 -2.490875
v 4.004659 0.343646 -2.493208
v 4.005272 0.343646 -2.497414
v 4.005492 0.343646 -2.502659
v 4.005272 0.343646 -2.507903
v 4.004659 0.343646 -2.512109
v 4.003772 0.343646 -2.514443
v 4.002788 0.343646 -2.514443
v 4.001902 0.343646 -2.512109
v 4.001288 0.343646 -2.507903
vn -0.0000 -1.0000 -0.0000
vn 0.7292 0.0381 -0.6832
vn 0.2958 -0.0169 -0.9551
vn 0.8275 0.0042 -0.5615
vn 0.9020 0.0338 -0.4303
vn 0.9010 -0.0000 -0.4339
vn 0.6235 -0.0000 -0.7818
vn 0.9350 0.0830 -0.3448
vn -0.9010 -0.0000 0.4339
vn -0.6235 -0.0000 0.7818
vn -0.7292 0.0381 0.6832
vn -0.9350 0.0830 0.3448
vn 0.2225 -0.0000 -0.9749
vn -0.2225 -0.0000 0.9749
vn -0.2958 -0.0169 0.9551
vn -0.2225 -0.0000 -0.9749
vn -0.2958 -0.0169 -0.9551
vn 0.2225 -0.0000 0.9749
vn 0.2958 -0.0169 0.9551
vn -0.6235 -0.0000 -0.7818
vn -0.7292 0.0381 -0.6832
vn 0.6235 -0.0000 0.7818
vn 0.7292 0.0381 0.6832
vn -0.9010 -0.0000 -0.4339
vn -0.9350 0.0830 -0.3448
vn 0.9010 -0.0000 0.4339
vn 0.9350 0.0830 0.3448
vn -1.0000 -0.0000 -0.0000
vn -0.9952 0.0976 -0.0000
vn 1.0000 -0.0000 -0.0000
vn 0.9952 0.0976 -0.0000
vn -0.0000 -0.0385 0.9993
vn -0.0000 -0.0000 1.0000
vn -0.8275 0.0042 0.5615
vn -0.9020 0.0338 0.4303
vn -0.0000 -0.0385 -0.9993
vn -0.9020 0.0338 -0.4303
vn -0.8275 0.0042 -0.5615
vn 0.9020 0.0338 0.4303
vn 0.8275 0.0042 0.5615
vn -0.9804 0.0814 -0.1796
vn 0.9804 0.0814 0.1796
vn -0.9952 0.0982 -0.0000
vn 0.9952 0.0982 -0.0000
vn 0.9804 0.0814 -0.1796
vn -0.9804 0.0814 0.1796
vn -0.0000 1.0000 -0.0000
vn -0.9679 -0.0000 -0.2512
vn -0.9348 -0.0000 -0.3551
vn 0.9679 -0.0000 0.2512
vn 0.9348 -0.0000 0.3551
vn -0.9957 -0.0000 -0.0932
vn 0.9957 -0.0000 0.0932
vn 0.9957 -0.0000 -0.0932
vn -0.9957 -0.0000 0.0932
vn 0.9679 -0.0000 -0.2512
vn -0.9679 -0.0000 0.2512
vn 0.9348 -0.0000 -0.3551
vn -0.9348 -0.0000 0.3551
vn -0.0000 -0.0000 -1.0000
vt 0.000000 0.000000
vt 0.000000 0.000000
vt 0.000000 0.000000
vt 0.000000 0.000000
vt 0.000000 0.000000
vt 0.000000 0.000000
vt 0.000000 0.000000
vt 0.000000 0.000000
vt 0.000000 0.000000
vt 0.000000 0.000000
vt 0.000000 0.000000
vt 0.000000 0.000000
vt 0.000000 0.000000
vt 0.000000 0.000000
vt 0.000000 0.000000
vt 0.000000 0.000000
vt 0.000000 0.000000
vt 0.000000 0.000000
vt 0.000000 0.000000
vt 0.000000 0.000000
vt 0.000000 0.000000
vt 0.000000 0.000000
vt 0.000000 0.000000
vt 0.000000 0.000000
vt 0.000000 0.000000
vt 0.000000 0.000000
vt 0.000000 0.000000
vt 0.000000 0.000000
vt 0.000000 0.000000
vt 0.000000 0.000000
vt 0.000000 0.000000
vt 0.000000 0.000000
vt 0.000000 0.000000
vt 0.000000 0.000000
vt 0.000000 0.000000
vt 0.000000 0.000000
vt 0.000000 0.000000
vt 0.000000 0.000000
vt 0.000000 0.000000
vt 0.000000 0.000000
vt 0.000000 0.000000
vt 0.000000 0.000000
vt 0.000000 0.000000
vt 0.000000 0.000000
vt 0.000000 0.000000
vt 0.000000 0.000000
vt 0.000000 0.000000
vt 0.000000 0.000000
vt 0.000000 0.000000
vt 0.000000 0.000000
vt 0.000000 0.000000
vt 0.000000 0.000000
vt 0.000000 0.000000
vt 0.000000 0.000000
vt 0.000000 0.000000
vt 0.000000 0.000000
s 1
usemtl abu
f 24/24/2 25/25/3 39/39/4 38/38/5
f 32/32/32 33/33/32 47/47/33 46/46/33
f 17/17/11 18/18/15 32/32/34 31/31/35
f 25/25/3 26/26/17 40/40/36 39/39/36
f 18/18/15 19/19/19 33/33/32 32/32/32
f 26/26/17 27/27/21 41/41/37 40/40/38
f 19/19/19 20/20/23 34/34/39 33/33/40
f 27/27/21 28/28/25 42/42/41 41/41/37
f 20/20/23 21/21/27 35/35/42 34/34/39
f 28/28/25 16/16/29 30/30/43 42/42/41
f 21/21/27 22/22/31 36/36/44 35/35/42
f 22/22/31 23/23/8 37/37/45 36/36/44
f 16/16/29 15/15/12 29/29/46 30/30/43
f 23/23/8 24/24/2 38/38/5 37/37/45
f 15/15/12 17/17/11 31/31/35 29/29/46
f 43/43/47 45/45/47 46/46/47 47/47/47 48/48/47 49/49/47 50/50/47 51/51/47 52/52/47 53/53/47 54/54/47 55/55/47 56/56/47 44/44/47
f 40/40/38 41/41/37 55/55/48 54/54/49
f 33/33/40 34/34/39 48/48/50 47/47/51
f 41/41/37 42/42/41 56/56/52 55/55/48
f 34/34/39 35/35/42 49/49/53 48/48/50
f 42/42/41 30/30/43 44/44/28 56/56/52
f 35/35/42 36/36/44 50/50/30 49/49/53
f 36/36/44 37/37/45 51/51/54 50/50/30
f 30/30/43 29/29/46 43/43/55 44/44/28
f 37/37/45 38/38/5 52/52/56 51/51/54
f 29/29/46 31/31/35 45/45/57 43/43/55
f 38/38/5 39/39/4 53/53/58 52/52/56
f 31/31/35 32/32/34 46/46/59 45/45/57
f 39/39/36 40/40/36 54/54/60 53/53/60
usemtl sabun
f 2/2/1 1/1/1 14/14/1 13/13/1 12/12/1 11/11/1 10/10/1 9/9/1 8/8/1 7/7/1 6/6/1 5/5/1 4/4/1 3/3/1
f 9/9/6 10/10/7 24/24/2 23/23/8
f 2/2/9 3/3/10 17/17/11 15/15/12
f 10/10/7 11/11/13 25/25/3 24/24/2
f 3/3/10 4/4/14 18/18/15 17/17/11
f 11/11/13 12/12/16 26/26/17 25/25/3
f 4/4/14 5/5/18 19/19/19 18/18/15
f 12/12/16 13/13/20 27/27/21 26/26/17
f 5/5/18 6/6/22 20/20/23 19/19/19
f 13/13/20 14/14/24 28/28/25 27/27/21
f 6/6/22 7/7/26 21/21/27 20/20/23
f 14/14/24 1/1/28 16/16/29 28/28/25
f 7/7/26 8/8/30 22/22/31 21/21/27
f 8/8/30 9/9/6 23/23/8 22/22/31
f 1/1/28 2/2/9 15/15/12 16/16/29
