# Blender 3.3.1
# www.blender.org
mtllib wall163.mtl.mtl
o wall.0163
v 1.071814 -0.000000 1.077997
v 1.071814 -0.000000 1.027997
v 1.071814 1.000000 1.077997
v 1.071814 1.000000 1.027997
v -0.209069 -0.000000 1.077997
v -0.209069 -0.000000 1.027997
v -0.209069 1.000000 1.077997
v -0.209069 1.000000 1.027997
v 1.071814 0.666666 1.077997
v 1.071814 0.666666 1.027997
v -0.209069 0.666666 1.077997
v -0.209069 0.666666 1.027997
vn -0.0000 -1.0000 -0.0000
vn 1.0000 -0.0000 -0.0000
vn -0.0000 1.0000 -0.0000
vn -0.0000 -0.0000 -1.0000
vn -0.0000 -0.0000 1.0000
vn -1.0000 -0.0000 -0.0000
vt -1.860007 -1.680505
vt 1.436328 -1.783749
vt 2.999189 2.572408
vt -1.782176 -1.541103
vt -0.126534 -1.783749
vt -0.124912 -1.783749
vt -0.202572 -1.667424
vt 1.437949 2.572408
vt -1.915680 0.062109
vt 1.436328 -0.041286
vt -1.827806 0.092520
vt 2.999189 0.829945
vt -0.124913 -0.041286
vt -0.126534 -0.052568
vt 1.437949 0.829945
vt -0.213102 -0.043690
vt -0.704358 -1.749334
vt 0.395501 -1.783749
vt 1.958362 2.572408
vt -0.729107 -1.625317
vt 0.395501 -0.041286
vt 1.958362 0.829945
s 0
usemtl wall
f 2/4/1 1/1/1 5/9/1 6/11/1
f 10/20/2 4/7/2 3/5/2 9/17/2
f 3/5/3 4/7/3 8/16/3 7/14/3
f 12/22/4 8/15/4 4/8/4 10/19/4
f 9/18/5 3/6/5 7/13/5 11/21/5
f 6/12/4 12/22/4 10/19/4 2/3/4
f 2/4/2 10/20/2 9/17/2 1/1/2
f 1/2/5 9/18/5 11/21/5 5/10/5
f 6/12/6 5/10/6 11/21/6 12/22/6
f 7/14/6 8/16/6 12/22/6 11/21/6
